<svg xmlns="http://www.w3.org/2000/svg" width="34.563" height="31.52" viewBox="0 0 34.563 31.52">
  <g id="buscar-section" transform="translate(0 -22.542)">
    <g id="Grupo_41" data-name="Grupo 41" transform="translate(0 22.542)">
      <g id="Grupo_40" data-name="Grupo 40" transform="translate(0 0)">
        <path id="Trazado_104" data-name="Trazado 104" d="M34.116,34.617a1.516,1.516,0,0,0-1.079-.447H32.6v-5.1a.529.529,0,0,0-.529-.529H28.7a.529.529,0,0,0-.529.529v5.1H26.165V24.924a1.249,1.249,0,0,0,.647-1.093v-.04a1.249,1.249,0,0,0-1.248-1.248H19.093a1.249,1.249,0,0,0-1.248,1.248v.04a1.249,1.249,0,0,0,.647,1.093V34.17H16.071V24.924a1.249,1.249,0,0,0,.647-1.093v-.04a1.249,1.249,0,0,0-1.248-1.248H9A1.249,1.249,0,0,0,7.752,23.79v.04A1.249,1.249,0,0,0,8.4,24.924V34.17H6.388v-5.1a.529.529,0,0,0-.529-.529H2.5a.529.529,0,0,0-.529.529v5.1H1.526a1.526,1.526,0,0,0,0,3.052h.442V53.533a.529.529,0,0,0,.529.529H5.859a.529.529,0,0,0,.529-.529V50.206H28.176v3.327a.529.529,0,0,0,.529.529h3.362a.529.529,0,0,0,.529-.529v-9.32a.529.529,0,1,0-1.058,0V53h-2.3V29.6h2.3V42.015a.529.529,0,1,0,1.058,0V37.222h.442a1.526,1.526,0,0,0,1.079-2.605ZM1.967,36.164H1.526a.468.468,0,0,1,0-.936h.442v.936ZM5.33,47.68V53h-2.3V29.6h2.3ZM18.9,23.79h0a.19.19,0,0,1,.19-.19h6.471a.19.19,0,0,1,.19.19v.04a.19.19,0,0,1-.188.19H19.091a.19.19,0,0,1-.188-.19v-.04Zm6.2,10.913v1.986s0,0,0,0,0,0,0,0v5.455a2.778,2.778,0,1,1-5.556,0V25.078h5.556v9.616s0,0,0,0S25.107,34.7,25.107,34.7Zm-9.035.525h2.421v.936H16.071ZM9,23.6H15.47a.19.19,0,0,1,.19.19v.04a.19.19,0,0,1-.19.19H9a.19.19,0,0,1-.19-.19v-.04A.19.19,0,0,1,9,23.6ZM6.388,35.228H8.4v.936H6.388Zm21.787,13.92H6.388v-.936H16.837a.529.529,0,1,0,0-1.058H6.388V37.222H8.4v4.06a.529.529,0,0,0,1.058,0v-16.2h5.556V42.151a2.779,2.779,0,0,1-5.334,1.092.529.529,0,0,0-.973.416,3.837,3.837,0,0,0,7.365-1.508v-4.93h2.421v4.93a3.836,3.836,0,0,0,7.673,0v-4.93h2.011v9.932H19.021a.529.529,0,1,0,0,1.058h9.154Zm0-12.984H26.165v-.936h2.011Zm4.862,0H32.6v-.936h.442a.468.468,0,0,1,0,.936Z" transform="translate(0 -22.542)" fill="#25385a"/>
      </g>
    </g>
    <g id="Grupo_43" data-name="Grupo 43" transform="translate(10.142 34.17)">
      <g id="Grupo_42" data-name="Grupo 42" transform="translate(0 0)">
        <path id="Trazado_105" data-name="Trazado 105" d="M153.932,194.787h-3.163a.529.529,0,0,0-.529.529v7.171a2.111,2.111,0,0,0,4.222,0v-7.171A.529.529,0,0,0,153.932,194.787Zm-.529,7.7a1.053,1.053,0,1,1-2.105,0v-6.642H153.4Z" transform="translate(-150.239 -194.787)" fill="#25385a"/>
      </g>
    </g>
    <g id="Grupo_45" data-name="Grupo 45" transform="translate(10.142 32.085)">
      <g id="Grupo_44" data-name="Grupo 44">
        <path id="Trazado_106" data-name="Trazado 106" d="M151.883,163.9h-1.114a.529.529,0,1,0,0,1.058h1.114a.529.529,0,1,0,0-1.058Z" transform="translate(-150.24 -163.901)" fill="#25385a"/>
      </g>
    </g>
    <g id="Grupo_47" data-name="Grupo 47" transform="translate(10.142 30.323)">
      <g id="Grupo_46" data-name="Grupo 46" transform="translate(0 0)">
        <path id="Trazado_107" data-name="Trazado 107" d="M151.883,137.808h-1.114a.529.529,0,1,0,0,1.058h1.114a.529.529,0,1,0,0-1.058Z" transform="translate(-150.24 -137.808)" fill="#25385a"/>
      </g>
    </g>
    <g id="Grupo_49" data-name="Grupo 49" transform="translate(10.142 28.562)">
      <g id="Grupo_48" data-name="Grupo 48" transform="translate(0 0)">
        <path id="Trazado_108" data-name="Trazado 108" d="M151.883,111.716h-1.114a.529.529,0,1,0,0,1.058h1.114a.529.529,0,1,0,0-1.058Z" transform="translate(-150.24 -111.716)" fill="#25385a"/>
      </g>
    </g>
    <g id="Grupo_51" data-name="Grupo 51" transform="translate(10.142 26.8)">
      <g id="Grupo_50" data-name="Grupo 50">
        <path id="Trazado_109" data-name="Trazado 109" d="M151.883,85.622h-1.114a.529.529,0,1,0,0,1.058h1.114a.529.529,0,1,0,0-1.058Z" transform="translate(-150.24 -85.622)" fill="#25385a"/>
      </g>
    </g>
    <g id="Grupo_53" data-name="Grupo 53" transform="translate(20.236 28.875)">
      <g id="Grupo_52" data-name="Grupo 52">
        <path id="Trazado_110" data-name="Trazado 110" d="M303.451,125.052a.529.529,0,0,0,.529-.529v-7.641a.529.529,0,0,0-.529-.529h-3.163a.529.529,0,0,0-.529.529v12.466a2.111,2.111,0,0,0,4.222,0v-2.795a.529.529,0,1,0-1.058,0v2.795a1.053,1.053,0,0,1-2.105,0V117.41h2.105v7.112A.529.529,0,0,0,303.451,125.052Z" transform="translate(-299.758 -116.352)" fill="#25385a"/>
      </g>
    </g>
    <g id="Grupo_55" data-name="Grupo 55" transform="translate(20.236 26.8)">
      <g id="Grupo_54" data-name="Grupo 54">
        <path id="Trazado_111" data-name="Trazado 111" d="M301.4,85.622h-1.114a.529.529,0,1,0,0,1.058H301.4a.529.529,0,1,0,0-1.058Z" transform="translate(-299.758 -85.622)" fill="#25385a"/>
      </g>
    </g>
    <g id="Grupo_57" data-name="Grupo 57" transform="translate(29.857 34.726)">
      <g id="Grupo_56" data-name="Grupo 56" transform="translate(0 0)">
        <path id="Trazado_112" data-name="Trazado 112" d="M442.807,203.032a.529.529,0,0,0-.529.529v.692a.529.529,0,1,0,1.058,0v-.692A.529.529,0,0,0,442.807,203.032Z" transform="translate(-442.278 -203.032)" fill="#25385a"/>
      </g>
    </g>
    <g id="Grupo_59" data-name="Grupo 59" transform="translate(3.649 34.726)">
      <g id="Grupo_58" data-name="Grupo 58" transform="translate(0 0)">
        <path id="Trazado_113" data-name="Trazado 113" d="M54.577,203.032a.529.529,0,0,0-.529.529v.692a.529.529,0,1,0,1.058,0v-.692A.529.529,0,0,0,54.577,203.032Z" transform="translate(-54.048 -203.032)" fill="#25385a"/>
      </g>
    </g>
  </g>
</svg>
