<svg xmlns="http://www.w3.org/2000/svg" width="25" height="28.132" viewBox="0 0 25 28.132">
  <g id="invoice" transform="translate(-28.5)">
    <g id="Grupo_40988" data-name="Grupo 40988" transform="translate(28.5)">
      <g id="Grupo_40987" data-name="Grupo 40987" transform="translate(0)">
        <path id="Trazado_94892" data-name="Trazado 94892" d="M110.148,253H109.6a1.1,1.1,0,0,0,0,2.2h.549a1.1,1.1,0,0,0,0-2.2Z" transform="translate(-104.104 -239.099)" fill="#25385a"/>
        <path id="Trazado_94893" data-name="Trazado 94893" d="M196.577,173H189.6a1.1,1.1,0,0,0,0,2.2h6.978a1.1,1.1,0,1,0,0-2.2Z" transform="translate(-179.709 -163.495)" fill="#25385a"/>
        <path id="Trazado_94894" data-name="Trazado 94894" d="M43.6,25.934H32.9a2.2,2.2,0,0,1-2.2-2.2V4.4a2.2,2.2,0,0,1,2.2-2.2h13.51a2.2,2.2,0,0,1,2.2,2.2V10.6a1.1,1.1,0,0,0,2.2,0V4.4a4.4,4.4,0,0,0-4.4-4.4H32.9a4.4,4.4,0,0,0-4.4,4.4V23.736a4.4,4.4,0,0,0,4.4,4.4H43.6a1.1,1.1,0,1,0,0-2.2Z" transform="translate(-28.5)" fill="#25385a"/>
        <path id="Trazado_94895" data-name="Trazado 94895" d="M110.148,333H109.6a1.1,1.1,0,0,0,0,2.2h.549a1.1,1.1,0,0,0,0-2.2Z" transform="translate(-104.104 -314.703)" fill="#25385a"/>
        <path id="Trazado_94896" data-name="Trazado 94896" d="M196.577,93H189.6a1.1,1.1,0,0,0,0,2.2h6.978a1.1,1.1,0,1,0,0-2.2Z" transform="translate(-179.709 -87.89)" fill="#25385a"/>
        <path id="Trazado_94897" data-name="Trazado 94897" d="M351.838,258.877h-1.007a.9.9,0,0,1-.893-.909v-.148a.859.859,0,0,1,.893-.863h.952a.535.535,0,0,1,.569.5,1.1,1.1,0,0,0,2.2,0,2.722,2.722,0,0,0-2.254-2.651V254.1a1.1,1.1,0,0,0-2.2,0v.744a3.068,3.068,0,0,0-1.446.795,3.026,3.026,0,0,0-.913,2.181v.148a3.1,3.1,0,0,0,3.091,3.107h1.007a.9.9,0,0,1,.9.9v.522a.851.851,0,0,1-.9.838H350.2a.519.519,0,0,1-.543-.516,1.1,1.1,0,1,0-2.2,0,2.681,2.681,0,0,0,.812,1.934,2.739,2.739,0,0,0,1.826.777v.607a1.1,1.1,0,1,0,2.2,0V265.5a3.018,3.018,0,0,0,2.638-3v-.522A3.1,3.1,0,0,0,351.838,258.877Z" transform="translate(-329.935 -239.099)" fill="#25385a"/>
        <path id="Trazado_94898" data-name="Trazado 94898" d="M194.379,335.2a1.1,1.1,0,0,0,0-2.2H189.6a1.1,1.1,0,0,0,0,2.2Z" transform="translate(-179.709 -314.703)" fill="#25385a"/>
        <path id="Trazado_94899" data-name="Trazado 94899" d="M110.148,173H109.6a1.1,1.1,0,1,0,0,2.2h.549a1.1,1.1,0,1,0,0-2.2Z" transform="translate(-104.104 -163.495)" fill="#25385a"/>
        <path id="Trazado_94900" data-name="Trazado 94900" d="M197.676,254.1a1.1,1.1,0,0,0-1.1-1.1H189.6a1.1,1.1,0,0,0,0,2.2h6.978A1.1,1.1,0,0,0,197.676,254.1Z" transform="translate(-179.709 -239.099)" fill="#25385a"/>
        <path id="Trazado_94901" data-name="Trazado 94901" d="M110.148,93H109.6a1.1,1.1,0,0,0,0,2.2h.549a1.1,1.1,0,1,0,0-2.2Z" transform="translate(-104.104 -87.89)" fill="#25385a"/>
      </g>
    </g>
  </g>
</svg>
