<svg xmlns="http://www.w3.org/2000/svg" width="24.191" height="22.176" viewBox="0 0 24.191 22.176">
  <g id="exclamation" transform="translate(-0.5 -1.833)">
    <path id="Trazado_94877" data-name="Trazado 94877" d="M11.144,2.87c.8-1.383,2.1-1.383,2.9,0L24.35,21.5c.8,1.381.144,2.511-1.451,2.511H2.292c-1.6,0-2.25-1.13-1.453-2.511Z" transform="translate(0 0)" fill="#f7c325"/>
    <g id="Grupo_40876" data-name="Grupo 40876" transform="translate(10.683 7.977)">
      <g id="Grupo_40875" data-name="Grupo 40875">
        <path id="Trazado_94878" data-name="Trazado 94878" d="M15.883,9.96a1.845,1.845,0,0,0-1.907,1.922l.773,7.065a1.019,1.019,0,0,0,1.134,1.109,1.02,1.02,0,0,0,1.134-1.109l.772-7.064A1.846,1.846,0,0,0,15.883,9.96Z" transform="translate(-13.97 -9.96)" fill="#27314d"/>
        <circle id="Elipse_83" data-name="Elipse 83" cx="1.384" cy="1.384" r="1.384" transform="translate(0.527 11.394)" fill="#27314d"/>
      </g>
    </g>
  </g>
</svg>
