<svg xmlns="http://www.w3.org/2000/svg" width="35.242" height="20.362" viewBox="0 0 35.242 20.362">
  <path id="email_2_" data-name="email (2)" d="M37.109,24H12.832A3.142,3.142,0,0,0,9.7,27.133v1.175a.783.783,0,1,0,1.566,0V27.133a1.965,1.965,0,0,1,.078-.47l8.771,7.518L11.344,41.7a1.965,1.965,0,0,1-.078-.47V40.055a.783.783,0,1,0-1.566,0v1.175a3.142,3.142,0,0,0,3.133,3.133H37.109a3.142,3.142,0,0,0,3.133-3.133v-14.1A3.142,3.142,0,0,0,37.109,24ZM12.518,25.605a.763.763,0,0,1,.313-.039H37.109a.763.763,0,0,1,.313.039L25.48,35.826a.823.823,0,0,1-1.018,0ZM37.109,42.8H12.832a.763.763,0,0,1-.313-.039L21.329,35.2l2.115,1.84a2.279,2.279,0,0,0,3.054,0l2.115-1.84,8.811,7.557A.763.763,0,0,1,37.109,42.8Zm1.566-1.566a1.965,1.965,0,0,1-.078.47l-8.771-7.518L38.6,26.663a1.965,1.965,0,0,1,.078.47ZM7.349,32.223a.785.785,0,0,1,.783-.783h4.7a.783.783,0,0,1,0,1.566h-4.7A.785.785,0,0,1,7.349,32.223Zm5.482,4.7H5.783a.783.783,0,1,1,0-1.566h7.048a.783.783,0,1,1,0,1.566Z" transform="translate(-5 -24)" fill="#25385a"/>
</svg>
