<svg id="Notification" xmlns="http://www.w3.org/2000/svg" width="28.389" height="28.653" viewBox="0 0 28.389 28.653">
  <path id="Shape" d="M11.389,25.88h1.849a.924.924,0,1,0,1.849,0h1.849a2.773,2.773,0,1,1-5.546,0ZM0,25.851l1.558-1.577a9.363,9.363,0,0,0,2.436-5.945V12.243A10.3,10.3,0,0,1,14.162,1.849h-.924V0h1.849V1.849h-.924A10.293,10.293,0,0,1,24.329,12.243v6.086a8.991,8.991,0,0,0,2.426,5.934l1.634,1.588Z" transform="translate(0)" fill="#2674fb"/>
  <circle id="Oval" cx="5.757" cy="5.757" r="5.757" transform="translate(16.874 0)" fill="#fa5d7c"/>
</svg>
