<svg id="ordenes-section" xmlns="http://www.w3.org/2000/svg" width="32.515" height="25.173" viewBox="0 0 32.515 25.173">
  <path id="Trazado_94792" data-name="Trazado 94792" d="M40.929,8H25.2a2.1,2.1,0,0,0-2.1,2.1v14.16H21v1.049h6.293a.524.524,0,0,0,.524-.524v-1.09l3.805,2.664-3.805,2.664v-1.09a.524.524,0,0,0-.524-.524H21v1.049h2.1v2.622a2.1,2.1,0,0,0,2.1,2.1H40.929a2.1,2.1,0,0,0,2.1-2.1V10.1A2.1,2.1,0,0,0,40.929,8ZM25.2,9.049H40.929A1.049,1.049,0,0,1,41.978,10.1v.865L40.65,12.622a1.651,1.651,0,0,1-1.295.623H35.632a2.622,2.622,0,0,0-5.14,0H26.769a1.651,1.651,0,0,1-1.295-.623l-1.327-1.659V10.1A1.049,1.049,0,0,1,25.2,9.049Zm9.44,4.72A1.573,1.573,0,1,1,33.062,12.2,1.573,1.573,0,0,1,34.635,13.769Zm6.293,18.355H25.2a1.049,1.049,0,0,1-1.049-1.049V28.453h2.622v1.573a.524.524,0,0,0,.825.43l5.244-3.671a.524.524,0,0,0,0-.859l-5.244-3.671a.524.524,0,0,0-.825.43v1.573H24.147V12.642l.509.636a2.694,2.694,0,0,0,2.113,1.016h3.724a2.622,2.622,0,0,0,5.14,0h3.724a2.694,2.694,0,0,0,2.113-1.016l.509-.636V31.075a1.049,1.049,0,0,1-1.049,1.049Z" transform="translate(-10.511 -8)"/>
  <path id="Trazado_94793" data-name="Trazado 94793" d="M43,18h1.049v1.049H43Z" transform="translate(-20.973 -12.756)"/>
  <path id="Trazado_94794" data-name="Trazado 94794" d="M9,13h6.293v1.049H9Z" transform="translate(-4.804 -10.378)"/>
  <path id="Trazado_94795" data-name="Trazado 94795" d="M5,13H6.049v1.049H5Z" transform="translate(-2.902 -10.378)"/>
  <path id="Trazado_94796" data-name="Trazado 94796" d="M1,20H7.293v1.049H1Z" transform="translate(-1 -13.707)"/>
  <path id="Trazado_94797" data-name="Trazado 94797" d="M12,54h4.72v1.049H12Z" transform="translate(-6.231 -29.876)"/>
  <path id="Trazado_94798" data-name="Trazado 94798" d="M8,54H9.049v1.049H8Z" transform="translate(-4.329 -29.876)"/>
  <path id="Trazado_94799" data-name="Trazado 94799" d="M1,49H9.915v1.049H1Z" transform="translate(-1 -27.498)"/>
  <path id="Trazado_94800" data-name="Trazado 94800" d="M17,32h3.147v1.049H17Z" transform="translate(-8.609 -19.413)"/>
  <path id="Trazado_94801" data-name="Trazado 94801" d="M13,32h1.049v1.049H13Z" transform="translate(-6.707 -19.413)"/>
  <path id="Trazado_94802" data-name="Trazado 94802" d="M53,46h3.147v1.049H53Z" transform="translate(-25.729 -26.071)"/>
  <path id="Trazado_94803" data-name="Trazado 94803" d="M45,50h7.342v1.049H45Z" transform="translate(-21.925 -27.973)"/>
</svg>
