<svg id="pre-ordenes-section" xmlns="http://www.w3.org/2000/svg" width="25.028" height="33.559" viewBox="0 0 25.028 33.559">
  <path id="Trazado_94774" data-name="Trazado 94774" d="M338.781,291.349l-.24-.628a3.321,3.321,0,0,1-2.369,0,4.763,4.763,0,0,0-3.394,0l-.018.007h0l.279.677.253.664a3.322,3.322,0,0,1,2.367,0,4.762,4.762,0,0,0,3.4,0l.008,0Z" transform="translate(-315.216 -271.374)" fill="#3cc"/>
  <g id="Grupo_40502" data-name="Grupo 40502">
    <path id="Trazado_94775" data-name="Trazado 94775" d="M89.386,12.854H86.5V2.163a.721.721,0,0,0-.721-.721H77.83a2.163,2.163,0,0,0-4.079,0H65.8a.721.721,0,0,0-.721.721V28.119a.721.721,0,0,0,.721.721H82.176v1.114a3.605,3.605,0,0,0,7.21,0V17.18a.721.721,0,0,0,.721-.721V13.575A.721.721,0,0,0,89.386,12.854Zm-.721,2.884H82.9V14.3h5.768Zm-5.047-2.884V5.768H85.06v7.086ZM85.06,4.326H80.117V2.884H85.06ZM72.906,2.884h1.442a.721.721,0,0,0,.721-.721.721.721,0,0,1,1.442,0,.721.721,0,0,0,.721.721h1.442V4.326H72.906Zm9.27,2.884v7.086a.721.721,0,0,0-.721.721v2.884a.721.721,0,0,0,.721.721v7.334H69.4V5.768ZM71.464,2.884V4.326H66.521V2.884ZM66.521,27.4V5.768h1.442V25.235a.721.721,0,0,0,.721.721H82.176V27.4Zm21.423,2.556a2.163,2.163,0,0,1-4.326,0V17.18h4.326Z" transform="translate(-65.079)"/>
    <path id="Trazado_94776" data-name="Trazado 94776" d="M153.079,110.721v2.884a.721.721,0,0,0,.721.721h8.445a.721.721,0,0,0,.721-.721v-2.884a.721.721,0,0,0-.721-.721H153.8A.721.721,0,0,0,153.079,110.721Zm1.442.721h7v1.442h-7Z" transform="translate(-147.311 -102.79)"/>
    <path id="Trazado_94777" data-name="Trazado 94777" d="M153.8,199.442h7.79a.721.721,0,1,0,0-1.442H153.8a.721.721,0,0,0,0,1.442Z" transform="translate(-147.311 -185.022)"/>
    <path id="Trazado_94778" data-name="Trazado 94778" d="M153.8,243.442h6.479a.721.721,0,0,0,0-1.442H153.8a.721.721,0,0,0,0,1.442Z" transform="translate(-147.311 -226.138)"/>
    <path id="Trazado_94779" data-name="Trazado 94779" d="M162.245,286H153.8a.721.721,0,1,0,0,1.442h8.445a.721.721,0,1,0,0-1.442Z" transform="translate(-147.311 -267.254)"/>
    <path id="Trazado_94780" data-name="Trazado 94780" d="M161.59,330H153.8a.721.721,0,1,0,0,1.442h7.79a.721.721,0,1,0,0-1.442Z" transform="translate(-147.311 -308.37)"/>
  </g>
</svg>
