<svg id="recolecciones-section" xmlns="http://www.w3.org/2000/svg" width="35.109" height="33.223" viewBox="0 0 35.109 33.223">
  <path id="Trazado_94973" data-name="Trazado 94973" d="M30.33,1.122a.517.517,0,0,0-.4.951,6.825,6.825,0,1,1-1.85-.49A.517.517,0,0,0,28.2.557a7.859,7.859,0,0,0-7.351,12.314H10.026a.875.875,0,0,0-.874.874v6.682l-.97,1.907a1.59,1.59,0,0,1-.854.769A1.325,1.325,0,0,0,6,21.754H4.012A1.326,1.326,0,0,0,2.688,23.13H1.407A1.409,1.409,0,0,0,0,24.538v.625a.516.516,0,0,0,1.033,0v-.625a.375.375,0,0,1,.374-.375H2.688v7.149H1.407a.375.375,0,0,1-.374-.374V27.229a.516.516,0,0,0-1.033,0v3.709a1.409,1.409,0,0,0,1.407,1.407H2.688a1.327,1.327,0,0,0,1.324,1.377H6a1.325,1.325,0,0,0,1.274-.968c.635.17-1.114.1,22,.1a.967.967,0,0,0,.965-.965V15.622A7.862,7.862,0,0,0,30.33,1.122ZM6.295,27.708V32.4A.3.3,0,0,1,6,32.689H4.012a.3.3,0,0,1-.291-.291v-9.32a.3.3,0,0,1,.291-.291H6a.294.294,0,0,1,.291.291Zm9.437-13.8H19.67v4.052l-1.531-1.2a.712.712,0,0,0-.877,0l-1.531,1.2Zm-.119,17.917c-8.2,0-7.8.054-8.285-.136V24.179A2.633,2.633,0,0,0,9.151,22.7l1.172-2.3c.171-.342,1.138.523.682,1.418l-.5.98a.992.992,0,0,0,.884,1.442l6.469,0a.586.586,0,0,1,.59.568.562.562,0,0,1-.558.553H13.856a.516.516,0,0,0,0,1.033h6.028a.637.637,0,0,1,.573.471.506.506,0,0,1-.531.649H13.813a.516.516,0,1,0,0,1.033h5.178a.56.56,0,0,1,.374.956.553.553,0,0,1-.4.164c-3.959,0-2.86,0-5.653,0a.516.516,0,1,0,0,1.033c2.459,0,2.473-.055,2.693.164A.562.562,0,0,1,15.613,31.821Zm13.6,0H26.25V21.895a.516.516,0,0,0-1.033,0v9.929H17.1a1.571,1.571,0,0,0,.007-1.124h1.862a1.594,1.594,0,0,0,1.46-2.228,1.564,1.564,0,0,0,.6-2.619,1.955,1.955,0,0,0-1.646-.492,1.6,1.6,0,0,0-1.52-2.153l-6.4,0,.468-.92c.785-1.544-.572-3.248-1.742-2.969V13.9H14.7v4.712a.713.713,0,0,0,.712.712c.318,0,.254-.008,2.29-1.6,2.008,1.571,1.964,1.6,2.289,1.6a.713.713,0,0,0,.713-.712V13.9H21.72a7.794,7.794,0,0,0,3.5,2.029v3.9a.516.516,0,1,0,1.033,0V16.138a7.951,7.951,0,0,0,2.962-.175Zm0,0" transform="translate(0 -0.499)" fill="#25385a"/>
  <path id="Trazado_94974" data-name="Trazado 94974" d="M335.708,70.409a.516.516,0,1,0-.773.685l2.08,2.348a1.008,1.008,0,0,0,1.506,0l4.776-5.361a.516.516,0,0,0-.771-.687l-4.757,5.339Zm0,0" transform="translate(-311.846 -62.648)" fill="#25385a"/>
</svg>
