<svg id="basura" xmlns="http://www.w3.org/2000/svg" width="15.65" height="18.413" viewBox="0 0 15.65 18.413">
  <path id="Trazado_83528" data-name="Trazado 83528" d="M2334.32,1835.342v-.506a.414.414,0,0,1,.415-.414h1.934a.414.414,0,0,1,.414.414v.506h.92v-.506a1.337,1.337,0,0,0-1.336-1.336h-1.933a1.337,1.337,0,0,0-1.334,1.336v.506Z" transform="translate(-2327.875 -1833.5)" fill="#25385a"/>
  <path id="Trazado_83529" data-name="Trazado 83529" d="M2016.388,2266.306l-1.226,10.621a1,1,0,0,1-1,.888h-7.418a1,1,0,0,1-1-.888l-1.225-10.621h-.825a.78.78,0,0,1-.1-.006l1.238,10.731a1.924,1.924,0,0,0,1.912,1.7h7.418a1.922,1.922,0,0,0,1.91-1.7l1.238-10.731c-.033,0-.068.006-.1.006Z" transform="translate(-2002.632 -2260.321)" fill="#25385a"/>
  <path id="Trazado_83530" data-name="Trazado 83530" d="M1946.877,1966.8h-11.1a2.278,2.278,0,0,0-2.275,2.275v.8a1.072,1.072,0,0,0,.967,1.065c.033,0,.068.005.1.005h13.512a.827.827,0,0,0,.1-.005,1.072,1.072,0,0,0,.967-1.065v-.8A2.276,2.276,0,0,0,1946.877,1966.8Zm.95,3.223h-13.258a.149.149,0,0,1-.149-.149v-.8a1.354,1.354,0,0,1,1.354-1.354h11.1a1.354,1.354,0,0,1,1.354,1.354v.8a.149.149,0,0,1-.149.149Z" transform="translate(-1933.5 -1964.959)" fill="#25385a"/>
  <path id="Trazado_83531" data-name="Trazado 83531" d="M2467.16,2374.986a.46.46,0,0,0,.46-.46v-7.366a.46.46,0,0,0-.92,0v7.366A.46.46,0,0,0,2467.16,2374.986Z" transform="translate(-2459.334 -2359.334)" fill="#25385a"/>
  <path id="Trazado_83532" data-name="Trazado 83532" d="M2667.418,2376.963a.461.461,0,0,0,.514-.4l.91-7.309a.46.46,0,0,0-.913-.115l-.91,7.309A.459.459,0,0,0,2667.418,2376.963Z" transform="translate(-2656.882 -2361.343)" fill="#25385a"/>
  <path id="Trazado_83533" data-name="Trazado 83533" d="M2201.349,2376.562a.46.46,0,0,0,.913-.115l-.91-7.309a.46.46,0,1,0-.913.115Z" transform="translate(-2196.747 -2361.341)" fill="#25385a"/>
</svg>
