<svg id="carrito-compras" xmlns="http://www.w3.org/2000/svg" xmlns:xlink="http://www.w3.org/1999/xlink" width="26.435" height="24.737" viewBox="0 0 26.435 24.737">
  <defs>
    <clipPath id="clip-path">
      <rect id="Rectángulo_18631" data-name="Rectángulo 18631" width="26.435" height="24.737" fill="#25385a"/>
    </clipPath>
  </defs>
  <g id="Grupo_20725" data-name="Grupo 20725" clip-path="url(#clip-path)">
    <path id="Trazado_44196" data-name="Trazado 44196" d="M64.149,158.987a2.656,2.656,0,1,1,2.656-2.656,2.659,2.659,0,0,1-2.656,2.656m0-3.645a.989.989,0,1,0,.989.989.99.99,0,0,0-.989-.989" transform="translate(-53.72 -134.249)" fill="#25385a"/>
    <path id="Trazado_44197" data-name="Trazado 44197" d="M137.187,158.987a2.656,2.656,0,1,1,2.656-2.656,2.659,2.659,0,0,1-2.656,2.656m0-3.645a.989.989,0,1,0,.989.989.99.99,0,0,0-.989-.989" transform="translate(-117.525 -134.249)" fill="#25385a"/>
    <path id="Trazado_44198" data-name="Trazado 44198" d="M21.606,17.367H8.512a2.7,2.7,0,0,1-2.646-2.109L3.148,3.389a.527.527,0,0,0-.29-.358L.6,1.987A1.042,1.042,0,1,1,1.48.1L3.734,1.141A2.624,2.624,0,0,1,5.179,2.924L7.9,14.793a.628.628,0,0,0,.615.49H21.606a.629.629,0,0,0,.615-.488L24.334,5.7a.63.63,0,0,0-.614-.774H8.3a1.042,1.042,0,0,1,0-2.084H23.72a2.714,2.714,0,0,1,2.644,3.329L24.25,15.267a2.7,2.7,0,0,1-2.645,2.1" transform="translate(0 0.001)" fill="#25385a"/>
    <path id="Trazado_44199" data-name="Trazado 44199" d="M97.987,58.871a1.082,1.082,0,0,0-.768.31l-2.4,2.4-.786-.786a1.107,1.107,0,0,0-1.525,0,1.087,1.087,0,0,0,0,1.525l1.555,1.554a1.069,1.069,0,0,0,.762.316,1.091,1.091,0,0,0,.78-.319l3.152-3.152a1.1,1.1,0,0,0,0-1.539,1.087,1.087,0,0,0-.77-.31" transform="translate(-80.54 -51.429)" fill="#25385a"/>
  </g>
</svg>
