<svg id="barcode" xmlns="http://www.w3.org/2000/svg" width="33.435" height="24.694" viewBox="0 0 33.435 24.694">
  <g id="Grupo_40629" data-name="Grupo 40629" transform="translate(0)">
    <rect id="Rectángulo_23965" data-name="Rectángulo 23965" width="26.156" height="16.724" rx="1.59" transform="translate(3.64 3.985)" fill="#082f4a"/>
    <g id="Grupo_40628" data-name="Grupo 40628">
      <path id="Trazado_94815" data-name="Trazado 94815" d="M16.209,11.293a1.216,1.216,0,0,0-1.216,1.215v8.94a1.216,1.216,0,1,0,2.431,0V12.509a1.216,1.216,0,0,0-1.215-1.216Z" transform="translate(0.508 -4.631)" fill="#fff"/>
      <path id="Trazado_94816" data-name="Trazado 94816" d="M19.421,11.293a1.216,1.216,0,0,0-1.216,1.215v6.3a1.216,1.216,0,1,0,2.431,0v-6.3a1.216,1.216,0,0,0-1.215-1.216Z" transform="translate(1.176 -1.991)" fill="#fff"/>
      <path id="Trazado_94817" data-name="Trazado 94817" d="M22.633,11.293a1.216,1.216,0,0,0-1.216,1.215v8.94a1.216,1.216,0,1,0,2.431,0V12.509a1.216,1.216,0,0,0-1.215-1.216Z" transform="translate(1.844 -4.631)" fill="#fff"/>
      <path id="Trazado_94818" data-name="Trazado 94818" d="M9.785,11.293A1.216,1.216,0,0,0,8.57,12.509v8.94a1.216,1.216,0,1,0,2.431,0V12.509a1.216,1.216,0,0,0-1.215-1.216Z" transform="translate(-0.827 -4.631)" fill="#fff"/>
      <path id="Trazado_94819" data-name="Trazado 94819" d="M13,11.293a1.216,1.216,0,0,0-1.216,1.215v6.3a1.216,1.216,0,1,0,2.431,0v-6.3A1.216,1.216,0,0,0,13,11.293Z" transform="translate(-0.159 -1.991)" fill="#fff"/>
      <path id="Trazado_94820" data-name="Trazado 94820" d="M29.97,5.778A1.126,1.126,0,0,0,28.843,6.9V9.538a1.284,1.284,0,0,1-1.283,1.283H24.927a1.127,1.127,0,1,0,0,2.253h2.633A3.54,3.54,0,0,0,31.1,9.538V6.9A1.127,1.127,0,0,0,29.97,5.778Z" transform="translate(2.339 11.621)" fill="#25385a"/>
      <path id="Trazado_94821" data-name="Trazado 94821" d="M3.286,5.778A1.126,1.126,0,0,0,2.159,6.9V9.538a3.54,3.54,0,0,0,3.536,3.536H8.328a1.126,1.126,0,1,0,0-2.253H5.695A1.284,1.284,0,0,1,4.412,9.538V6.9A1.127,1.127,0,0,0,3.286,5.778Z" transform="translate(-2.159 11.621)" fill="#25385a"/>
      <path id="Trazado_94822" data-name="Trazado 94822" d="M8.328,20.182H5.695a3.54,3.54,0,0,0-3.536,3.536v2.634a1.126,1.126,0,1,0,2.253,0V23.718a1.284,1.284,0,0,1,1.283-1.283H8.328a1.127,1.127,0,1,0,0-2.253Z" transform="translate(-2.159 -20.182)" fill="#25385a"/>
      <path id="Trazado_94823" data-name="Trazado 94823" d="M27.561,20.182H24.927a1.126,1.126,0,0,0,0,2.253h2.634a1.284,1.284,0,0,1,1.283,1.283v2.634a1.126,1.126,0,1,0,2.253,0V23.718a3.54,3.54,0,0,0-3.536-3.536Z" transform="translate(2.339 -20.182)" fill="#25385a"/>
    </g>
  </g>
</svg>
