<svg xmlns="http://www.w3.org/2000/svg" width="27.131" height="27.01" viewBox="0 0 27.131 27.01">
  <g id="muestra" transform="translate(-5 -5.3)">
    <g id="Grupo_40638" data-name="Grupo 40638" transform="translate(5 5.3)">
      <path id="Trazado_94824" data-name="Trazado 94824" d="M41.355,51.4h-6.9a.452.452,0,0,0,0,.9h6.9a.452.452,0,1,0,0-.9Z" transform="translate(-25.258 -37.503)" fill="#25385a" fill-rule="evenodd"/>
      <path id="Trazado_94825" data-name="Trazado 94825" d="M37.889,70.4H34.452a.452.452,0,1,0,0,.9h3.437a.452.452,0,0,0,0-.9Z" transform="translate(-25.258 -50.776)" fill="#25385a" fill-rule="evenodd"/>
      <path id="Trazado_94826" data-name="Trazado 94826" d="M34.452,61.8h.935a.452.452,0,0,0,0-.9h-.935a.464.464,0,0,0-.452.452A.444.444,0,0,0,34.452,61.8Z" transform="translate(-25.258 -44.139)" fill="#25385a" fill-rule="evenodd"/>
      <path id="Trazado_94827" data-name="Trazado 94827" d="M49.668,60.9H46.352a.452.452,0,1,0,0,.9h3.316a.452.452,0,0,0,0-.9Z" transform="translate(-33.571 -44.139)" fill="#25385a" fill-rule="evenodd"/>
      <path id="Trazado_94828" data-name="Trazado 94828" d="M32.131,12.2a4.091,4.091,0,0,0-.422-1.809,31.057,31.057,0,0,0-2.291-3.5c-.362-.512-.693-.995-.965-1.387a.46.46,0,0,0-.362-.211.366.366,0,0,0-.362.211c-.271.392-.6.874-.965,1.387-.03.03-.03.06-.06.09H6.839A1.827,1.827,0,0,0,5,8.827v3.015A1.866,1.866,0,0,0,6.718,13.68V29.145A3.165,3.165,0,0,0,9.884,32.31H25.408a3.165,3.165,0,0,0,3.165-3.165v-12.9A4.073,4.073,0,0,0,32.131,12.2Zm-8.5,14.349a1.209,1.209,0,0,1-1.206,1.206H12.868a1.209,1.209,0,0,1-1.206-1.206V18.443a1.209,1.209,0,0,1,1.206-1.206h9.556a1.209,1.209,0,0,1,1.206,1.206Zm.9-7.355v-.754a2.116,2.116,0,0,0-2.11-2.11H12.868a2.116,2.116,0,0,0-2.11,2.11V19.2H7.623V13.65h16.67a4.014,4.014,0,0,0,3.376,2.592V19.2ZM5.9,11.811V8.8a.939.939,0,0,1,.934-.934H8.5V9.611a.452.452,0,0,0,.9,0V7.862h2.562V9.611a.452.452,0,0,0,.9,0V7.862H15.43V9.611a.452.452,0,0,0,.9,0V7.862H18.9V9.611a.452.452,0,0,0,.9,0V7.862h2.562V9.611a.452.452,0,0,0,.9,0V7.862h2.743a22.379,22.379,0,0,0-1.6,2.532,4.091,4.091,0,0,0-.422,1.809c0,.181.03.362.03.543H6.839a.939.939,0,0,1-.934-.934Z" transform="translate(-5 -5.3)" fill="#25385a" fill-rule="evenodd"/>
    </g>
  </g>
</svg>
