<svg xmlns="http://www.w3.org/2000/svg" width="34.233" height="24.909" viewBox="0 0 34.233 24.909">
  <g id="subir" transform="translate(0 -66.65)">
    <g id="Grupo_40657" data-name="Grupo 40657" transform="translate(0 66.65)">
      <path id="Trazado_94829" data-name="Trazado 94829" d="M26.749,91.559H19.4V84.137h2.427a.759.759,0,0,0,.616-1.2L17.725,76.4a.752.752,0,0,0-1.224,0L11.78,82.934a.757.757,0,0,0,.616,1.2h2.427v7.422H6.6A7.357,7.357,0,0,1,0,84.2a6.968,6.968,0,0,1,3.456-6.016,4.672,4.672,0,0,1-.287-1.63,4.738,4.738,0,0,1,4.743-4.743,4.662,4.662,0,0,1,1.623.287,9.494,9.494,0,0,1,18.04,3.134,8.26,8.26,0,0,1-.825,16.326Z" transform="translate(0 -66.65)" fill="#082f4a"/>
    </g>
  </g>
</svg>
