<svg xmlns="http://www.w3.org/2000/svg" width="24.403" height="27.184" viewBox="0 0 24.403 27.184">
  <g id="timer" transform="translate(-3 -1.949)">
    <path id="Trazado_94814" data-name="Trazado 94814" d="M15.2,4.73a12.2,12.2,0,1,0,12.2,12.2A12.2,12.2,0,0,0,15.2,4.73Zm0,21.691a9.49,9.49,0,1,1,9.49-9.49,9.49,9.49,0,0,1-9.49,9.49ZM19.879,4.5a1.356,1.356,0,1,1,1.491-2.25L25.437,4.96a1.356,1.356,0,0,1-.746,2.481,1.274,1.274,0,0,1-.746-.23ZM4.586,6.831a1.356,1.356,0,0,1,.38-1.871L9.033,2.249A1.356,1.356,0,1,1,10.524,4.5L6.457,7.211a1.274,1.274,0,0,1-.746.23A1.356,1.356,0,0,1,4.586,6.831ZM18.875,18.68A1.361,1.361,0,1,1,16.95,20.6l-2.711-2.711a1.356,1.356,0,0,1-.393-.963V11.508a1.356,1.356,0,1,1,2.711,0v4.867Z" transform="translate(0 0)" fill="#082f4a"/>
  </g>
</svg>
