<svg xmlns="http://www.w3.org/2000/svg" width="45" height="45" viewBox="0 0 45 45">
  <g id="avisos-ordenes-menu-icon" transform="translate(11772 355)">
    <rect id="Rectángulo_24107" data-name="Rectángulo 24107" width="45" height="45" transform="translate(-11772 -355)" fill="#fff"/>
    <g id="chat_2_" data-name="chat (2)" transform="translate(-11762 -375.022)">
      <g id="Grupo_41073" data-name="Grupo 41073" transform="translate(0 31.022)">
        <g id="Grupo_41072" data-name="Grupo 41072">
          <path id="Trazado_94941" data-name="Trazado 94941" d="M15.737,31.022H2.234A2.231,2.231,0,0,0,0,33.256v8.936a2.231,2.231,0,0,0,2.234,2.234h.745V46.66a.745.745,0,0,0,1.1.655c.015-.015.045-.015.06-.03,4.1-2.747,3.178-2.135,4.1-2.74a.749.749,0,0,1,.4-.119h7.1a2.231,2.231,0,0,0,2.234-2.234V33.256A2.231,2.231,0,0,0,15.737,31.022ZM9.78,39.958H3.723a.745.745,0,0,1,0-1.489H9.78A.745.745,0,0,1,9.78,39.958Zm4.468-2.979H3.723a.745.745,0,0,1,0-1.489H14.248A.745.745,0,0,1,14.248,36.979Z" transform="translate(0 -31.022)" fill="#2674fb"/>
        </g>
      </g>
      <g id="Grupo_41075" data-name="Grupo 41075" transform="translate(7.447 36.979)">
        <g id="Grupo_41074" data-name="Grupo 41074">
          <path id="Trazado_94942" data-name="Trazado 94942" d="M165.737,151.022h-3.723v5.213a3.725,3.725,0,0,1-3.723,3.723h-6.876L150,160.9v1.3a2.231,2.231,0,0,0,2.234,2.234h7.322l4.274,2.859a.748.748,0,0,0,1.162-.625v-2.234h.745a2.231,2.231,0,0,0,2.234-2.234v-8.936A2.231,2.231,0,0,0,165.737,151.022Z" transform="translate(-150 -151.022)" fill="#2674fb"/>
        </g>
      </g>
    </g>
  </g>
</svg>
