<svg xmlns="http://www.w3.org/2000/svg" width="21.263" height="23.539" viewBox="0 0 21.263 23.539">
  <g id="bell-icon" transform="translate(-1612 -10.727)">
    <g id="Grupo_41295" data-name="Grupo 41295" transform="translate(1612 10.727)">
      <path id="Trazado_94983" data-name="Trazado 94983" d="M39.2,17.586a2.726,2.726,0,0,0-2.726-2.4.3.3,0,0,1-.3-.3V10.414a7.827,7.827,0,0,0-5.053-7.3,2.657,2.657,0,0,0,.053-.52,2.593,2.593,0,0,0-5.186,0,2.776,2.776,0,0,0,.049.5,7.587,7.587,0,0,0-5.05,7.153v4.636a.3.3,0,0,1-.3.3,2.724,2.724,0,0,0-2.726,2.4A2.659,2.659,0,0,0,20.608,20.5h4.579a3.415,3.415,0,0,0,6.788,0h4.579A2.659,2.659,0,0,0,39.2,17.586ZM28.581,1.519a1.076,1.076,0,0,1,1.074,1.074.928.928,0,0,1-.015.144,6.728,6.728,0,0,0-.782-.072,7.823,7.823,0,0,0-1.336.076.929.929,0,0,1-.015-.144,1.077,1.077,0,0,1,1.075-1.078Zm0,20.5a1.9,1.9,0,0,1-1.86-1.519h3.721A1.9,1.9,0,0,1,28.581,22.02ZM37.4,18.611a1.13,1.13,0,0,1-.843.372H20.608a1.13,1.13,0,0,1-.843-.372,1.115,1.115,0,0,1-.289-.881,1.193,1.193,0,0,1,1.215-1.025,1.821,1.821,0,0,0,1.819-1.819V10.251a6.077,6.077,0,0,1,6.071-6.075c.076,0,.148,0,.224,0a6.212,6.212,0,0,1,5.851,6.234v4.472a1.821,1.821,0,0,0,1.819,1.819,1.193,1.193,0,0,1,1.215,1.025A1.137,1.137,0,0,1,37.4,18.611Z" transform="translate(-17.95 0)" fill="#fff"/>
      <path id="Trazado_94984" data-name="Trazado 94984" d="M19.278,50.868a.758.758,0,0,0,.74-.6,8.875,8.875,0,0,1,2.415-4.393A.76.76,0,0,0,21.359,44.8a10.389,10.389,0,0,0-2.825,5.144.755.755,0,0,0,.577.9A.879.879,0,0,0,19.278,50.868Z" transform="translate(-18.48 -41.756)" fill="#fff"/>
      <path id="Trazado_94985" data-name="Trazado 94985" d="M290.781,50.811a.8.8,0,0,0,.163-.019.756.756,0,0,0,.577-.9,10.406,10.406,0,0,0-2.825-5.144.76.76,0,1,0-1.074,1.074,8.9,8.9,0,0,1,2.415,4.393A.765.765,0,0,0,290.781,50.811Z" transform="translate(-270.316 -41.699)" fill="#fff"/>
    </g>
  </g>
</svg>
