<svg xmlns="http://www.w3.org/2000/svg" width="45" height="45" viewBox="0 0 45 45">
  <g id="catalogo-ordenes-menu-icon" transform="translate(12032 355)">
    <rect id="Rectángulo_24107" data-name="Rectángulo 24107" width="45" height="45" transform="translate(-12032 -355)" fill="#fff"/>
    <g id="Solid-Black" transform="translate(-12024 -347)">
      <path id="Trazado_94764" data-name="Trazado 94764" d="M5,3.71V24.485A2.711,2.711,0,0,0,7.71,27.2H22.162a2.711,2.711,0,0,0,2.71-2.71V7.323a2.71,2.71,0,0,0-1.807-2.554V3.71A2.711,2.711,0,0,0,20.356,1H7.71A2.711,2.711,0,0,0,5,3.71Zm7.975,13.33-4.1,4.1a.9.9,0,0,0,1.277,1.277l4.1-4.1a4.517,4.517,0,1,0-1.277-1.277Zm3.768-5.2a2.71,2.71,0,1,1-2.71,2.71A2.711,2.711,0,0,1,16.743,11.839ZM6.807,3.71a.9.9,0,0,1,.9-.9H20.356a.9.9,0,0,1,.9.9v.9H7.71a.9.9,0,0,1-.9-.9Z" fill="#2674fb" fill-rule="evenodd"/>
    </g>
  </g>
</svg>
