<svg id="Grupo_41413" data-name="Grupo 41413" xmlns="http://www.w3.org/2000/svg" xmlns:xlink="http://www.w3.org/1999/xlink" width="37.479" height="33.352" viewBox="0 0 37.479 33.352">
  <defs>
    <clipPath id="clip-path">
      <rect id="Rectángulo_24122" data-name="Rectángulo 24122" width="37.479" height="33.352" fill="none"/>
    </clipPath>
  </defs>
  <g id="Grupo_41412" data-name="Grupo 41412" clip-path="url(#clip-path)">
    <path id="Trazado_95007" data-name="Trazado 95007" d="M32.082,10.691A1.421,1.421,0,1,0,30.072,12.7l2.556,2.556H16.676a1.421,1.421,0,1,0,0,2.841H32.628l-2.556,2.556a1.421,1.421,0,0,0,2.009,2.009l4.98-4.98a1.42,1.42,0,0,0,0-2.01Zm-3.561,15.7a1.419,1.419,0,0,1,.012,2.009A16.675,16.675,0,1,1,16.676,0,16.555,16.555,0,0,1,28.532,4.951a1.421,1.421,0,1,1-2.02,2,13.834,13.834,0,1,0-9.836,23.562A13.737,13.737,0,0,0,26.512,26.4a1.419,1.419,0,0,1,2.009-.012" fill="#fff" fill-rule="evenodd"/>
  </g>
</svg>
