<svg xmlns="http://www.w3.org/2000/svg" width="45" height="45" viewBox="0 0 45 45">
  <g id="dashboard-ordenes-menu-icon" transform="translate(11967 355)">
    <rect id="Rectángulo_24107" data-name="Rectángulo 24107" width="45" height="45" transform="translate(-11967 -355)" fill="#fff"/>
    <g id="data-management" transform="translate(-11959 -347)">
      <path id="Trazado_94765" data-name="Trazado 94765" d="M34,38v7.363h9.2V38Zm4.6,6.442a2.761,2.761,0,1,1,2.761-2.761A2.761,2.761,0,0,1,38.6,44.442Z" transform="translate(-17.275 -19.434)" fill="#2674fb"/>
      <path id="Trazado_94766" data-name="Trazado 94766" d="M8.841,18.92A.92.92,0,1,0,7,18.92v.46H8.841Z" transform="translate(-2.699 -8.637)" fill="#2674fb"/>
      <path id="Trazado_94767" data-name="Trazado 94767" d="M2,16.9H7.982a.46.46,0,0,0,.46-.46V10H2Zm1.381-1.841V14.6a1.832,1.832,0,0,1,.745-1.47,1.381,1.381,0,1,1,2.191,0A1.832,1.832,0,0,1,7.062,14.6v.46a.46.46,0,0,1,0,.92H3.381a.46.46,0,0,1,0-.92Z" transform="translate(0 -4.319)" fill="#2674fb"/>
      <path id="Trazado_94768" data-name="Trazado 94768" d="M41.38,43.917V42.142a1.837,1.837,0,1,0,2.236,2.236H41.84A.46.46,0,0,1,41.38,43.917Z" transform="translate(-20.513 -21.67)" fill="#2674fb"/>
      <circle id="Elipse_77" data-name="Elipse 77" cx="0.51" cy="0.51" r="0.51" transform="translate(4.291 7.354)" fill="#2674fb"/>
      <path id="Trazado_94769" data-name="Trazado 94769" d="M45,42.142v1.315h1.315A1.837,1.837,0,0,0,45,42.142Z" transform="translate(-23.213 -21.67)" fill="#2674fb"/>
      <path id="Trazado_94770" data-name="Trazado 94770" d="M15.2,38H6v7.363h9.2Zm-1.381,6.442H7.841a.92.92,0,0,1-.92-.92V39.381a.46.46,0,1,1,.92,0v4.142h.92V40.761a.46.46,0,1,1,.92,0v2.761h.92V40.761a.46.46,0,1,1,.92,0v2.761h.92V40.761a.46.46,0,1,1,.92,0v2.761h.46a.46.46,0,0,1,0,.92Z" transform="translate(-2.159 -19.434)" fill="#2674fb"/>
      <path id="Trazado_94771" data-name="Trazado 94771" d="M2,31.168a.92.92,0,0,0,.92.92H26.849a.92.92,0,0,0,.92-.92V10H9.363v6.442a1.381,1.381,0,0,1-1.381,1.381H2Zm24.849-.92a.92.92,0,0,1-.92.92h-9.2a.92.92,0,0,1-.92-.92V22.885a.92.92,0,0,1,.92-.92h9.2a.92.92,0,0,1,.92.92ZM10.283,12.3a.92.92,0,0,1,.92-.92H25.929a.92.92,0,0,1,.92.92v7.363a.92.92,0,0,1-.92.92H11.2a.92.92,0,0,1-.92-.92ZM2.92,22.885a.92.92,0,0,1,.92-.92h9.2a.92.92,0,0,1,.92.92v7.363a.92.92,0,0,1-.92.92h-9.2a.92.92,0,0,1-.92-.92Z" transform="translate(0 -4.319)" fill="#2674fb"/>
      <path id="Trazado_94772" data-name="Trazado 94772" d="M36.725,15H22v7.363H36.725Zm-1.381,3.221a.46.46,0,1,1-.92,0v-.73l-2.9,2.9a.46.46,0,0,1-.651,0l-1.515-1.515-1.976,1.976a.46.46,0,0,1-.651,0l-1.055-1.055-1.515,1.515a.46.46,0,1,1-.651-.651l1.841-1.841a.46.46,0,0,1,.651,0l1.055,1.055L29.037,17.9a.46.46,0,0,1,.651,0L31.2,19.411l2.571-2.571h-.73a.46.46,0,1,1,0-.92h1.841a.46.46,0,0,1,.46.46Z" transform="translate(-10.797 -7.018)" fill="#2674fb"/>
      <path id="Trazado_94773" data-name="Trazado 94773" d="M27.77,2.92a.92.92,0,0,0-.92-.92H2.92A.92.92,0,0,0,2,2.92V4.761H27.77Zm-23.929.92h-.46a.46.46,0,0,1,0-.92h.46a.46.46,0,0,1,0,.92Zm2.3,0h-.46a.46.46,0,1,1,0-.92h.46a.46.46,0,1,1,0,.92Zm2.3,0h-.46a.46.46,0,1,1,0-.92h.46a.46.46,0,0,1,0,.92Zm17.947,0h-4.6a.46.46,0,1,1,0-.92h4.6a.46.46,0,1,1,0,.92Z" fill="#2674fb"/>
    </g>
  </g>
</svg>
