<svg xmlns="http://www.w3.org/2000/svg" width="45" height="45" viewBox="0 0 45 45">
  <g id="facturas-ordenes-menu-icon" transform="translate(11659 355)">
    <rect id="Rectángulo_24107" data-name="Rectángulo 24107" width="45" height="45" transform="translate(-11659 -355)" fill="#fff"/>
    <g id="Icon" transform="translate(-11648.789 -346.25)">
      <path id="Trazado_94891" data-name="Trazado 94891" d="M6.5,19.8a.849.849,0,0,1,0-1.7H9.62v-.283a8.061,8.061,0,0,1,.883-3.68H6.5a.849.849,0,0,1,0-1.7h5.129a8.446,8.446,0,0,1,2.049-1.7H6.5a.849.849,0,1,1,0-1.7h7.925a.86.86,0,0,1,.849.849s0,.091,0,.136a8.05,8.05,0,0,1,2.547-.419,7.11,7.11,0,0,1,.849,0V4.231A1.993,1.993,0,0,0,16.685,2.25H4.231A1.993,1.993,0,0,0,2.25,4.231V21.214a1.993,1.993,0,0,0,1.981,1.981h7.4a8.038,8.038,0,0,1-1.777-3.4Zm0-14.152h7.925a.849.849,0,0,1,0,1.7H6.5a.849.849,0,0,1,0-1.7Zm11.322,5.661a6.51,6.51,0,1,0,6.51,6.51,6.51,6.51,0,0,0-6.51-6.51Zm.679,9.555v.351a.679.679,0,0,1-1.359,0V20.84a3.306,3.306,0,0,1-1.03-.374.679.679,0,1,1,.691-1.132,1.959,1.959,0,0,0,.974.26h.272a.464.464,0,0,0,.464-.453.453.453,0,0,0-.306-.43l-1.223-.442a1.811,1.811,0,0,1-1.211-1.71,1.834,1.834,0,0,1,1.37-1.755v-.385a.679.679,0,1,1,1.359,0v.374a3.306,3.306,0,0,1,1.03.374.679.679,0,1,1-.691,1.132,1.959,1.959,0,0,0-.974-.26h-.272a.464.464,0,0,0-.464.453.453.453,0,0,0,.306.43l1.223.442a1.811,1.811,0,0,1,1.211,1.71,1.834,1.834,0,0,1-1.37,1.789Z" transform="translate(0 0)" fill="#2674fb"/>
    </g>
  </g>
</svg>
