<svg xmlns="http://www.w3.org/2000/svg" width="45" height="45" viewBox="0 0 45 45">
  <g id="insumos-ordenes-menu-icon" transform="translate(11837 355)">
    <rect id="Rectángulo_24107" data-name="Rectángulo 24107" width="45" height="45" transform="translate(-11837 -355)" fill="#fff"/>
    <g id="centrifuge" transform="translate(-11898.2 -395.8)">
      <g id="Grupo_40720" data-name="Grupo 40720" transform="translate(73.2 50.8)">
        <g id="XMLID_1_">
          <path id="Trazado_94838" data-name="Trazado 94838" d="M288.258,50.906v1.862a.106.106,0,0,1-.106.106H287.9a.182.182,0,0,0-.059-.006.2.2,0,0,0-.059.006h-1.354a.182.182,0,0,0-.059-.006.2.2,0,0,0-.059.006h-5.556a.182.182,0,0,0-.059-.006.2.2,0,0,0-.059.006h-1.354a.3.3,0,0,0-.118,0h-.254a.106.106,0,0,1-.106-.106V50.906a.106.106,0,0,1,.106-.106h.928v1.034a.29.29,0,0,0,.29.29.294.294,0,0,0,.29-.29V50.8h1.123v1.034a.29.29,0,1,0,.579,0V50.8h1.123v1.034a.29.29,0,1,0,.579,0V50.8h1.123v1.034a.29.29,0,1,0,.579,0V50.8h1.123v1.034a.29.29,0,0,0,.579,0V50.8h.928A.11.11,0,0,1,288.258,50.906Z" transform="translate(-266.647 -50.8)" fill="#2674fb"/>
          <path id="Trazado_94839" data-name="Trazado 94839" d="M298.839,95.6v17.591a4.019,4.019,0,1,1-8.039,0V95.6h.893v17.591a3.127,3.127,0,1,0,6.254,0V95.6Z" transform="translate(-277.938 -92.952)" fill="#2674fb"/>
          <path id="Trazado_94840" data-name="Trazado 94840" d="M320.8,95.6v17.591a2.548,2.548,0,1,1-5.1,0v-3.05h1.962a.633.633,0,0,0,.632-.632v-7.684a.626.626,0,0,0-.632-.632H315.7V95.6Z" transform="translate(-301.366 -92.952)" fill="#2674fb"/>
          <path id="Trazado_94841" data-name="Trazado 94841" d="M317.716,200.053v7.684a.053.053,0,0,1-.053.053H315.7V200h1.962A.053.053,0,0,1,317.716,200.053Z" transform="translate(-301.366 -191.181)" fill="#2674fb"/>
          <path id="Trazado_94842" data-name="Trazado 94842" d="M82.658,50.906v1.862a.106.106,0,0,1-.106.106H82.3a.3.3,0,0,0-.118,0h-1.36a.3.3,0,0,0-.118,0H75.151a.3.3,0,0,0-.118,0H73.685a.3.3,0,0,0-.118,0h-.26a.106.106,0,0,1-.106-.106V50.906a.106.106,0,0,1,.106-.106h.928v1.034a.29.29,0,1,0,.579,0V50.8h1.123v1.034a.29.29,0,1,0,.579,0V50.8h1.123v1.034a.29.29,0,1,0,.579,0V50.8h1.123v1.034a.29.29,0,1,0,.579,0V50.8h1.123v1.034a.29.29,0,1,0,.579,0V50.8h.934a.1.1,0,0,1,.077.035A.139.139,0,0,1,82.658,50.906Z" transform="translate(-73.2 -50.8)" fill="#2674fb"/>
          <path id="Trazado_94843" data-name="Trazado 94843" d="M93.339,95.6v17.591a4.019,4.019,0,0,1-8.039,0V95.6h.887v17.591a3.127,3.127,0,0,0,6.254,0V95.6Z" transform="translate(-84.585 -92.952)" fill="#2674fb"/>
          <path id="Trazado_94844" data-name="Trazado 94844" d="M112.11,200.053v7.684a.053.053,0,0,1-.053.053H110.1V200h1.957A.053.053,0,0,1,112.11,200.053Z" transform="translate(-107.919 -191.181)" fill="#2674fb"/>
          <path id="Trazado_94845" data-name="Trazado 94845" d="M115.2,95.6v17.591a2.548,2.548,0,0,1-5.1,0v-3.05h1.957a.626.626,0,0,0,.632-.632v-7.684a.626.626,0,0,0-.632-.632H110.1V95.6Z" transform="translate(-107.919 -92.952)" fill="#2674fb"/>
        </g>
      </g>
    </g>
  </g>
</svg>
