<svg xmlns="http://www.w3.org/2000/svg" width="45" height="45" viewBox="0 0 45 45">
  <g id="ordenes-menu-icon" transform="translate(12097 355)">
    <rect id="Rectángulo_24107" data-name="Rectángulo 24107" width="45" height="45" transform="translate(-12097 -355)" fill="#fff"/>
    <g id="heart" transform="translate(-12153.85 -348)">
      <g id="Grupo_74" data-name="Grupo 74" transform="translate(68.85 0)">
        <g id="Grupo_73" data-name="Grupo 73">
          <circle id="Elipse_8" data-name="Elipse 8" cx="4.677" cy="4.677" r="4.677" transform="translate(6.131)" fill="#2674fb"/>
          <path id="Trazado_116" data-name="Trazado 116" d="M79.658,188.2c-5.966,0-10.808,1.811-10.808,7.776v10.734h3.29c.025-3.695.288-9.611,1.768-11.545v11.545H85.4V195.16c1.479,1.933,1.743,7.874,1.768,11.545h3.29V195.976C90.466,190.011,85.624,188.2,79.658,188.2Zm0,12.57s-3.314-2.694-3.314-4.008a1.764,1.764,0,0,1,1.768-1.768,1.741,1.741,0,0,1,1.553.951,1.788,1.788,0,0,1,1.553-.951,1.764,1.764,0,0,1,1.768,1.768C82.972,198.143,79.658,200.77,79.658,200.77Z" transform="translate(-68.85 -176.649)" fill="#2674fb"/>
        </g>
      </g>
    </g>
  </g>
</svg>
