<svg xmlns="http://www.w3.org/2000/svg" width="45" height="45" viewBox="0 0 45 45">
  <g id="recolecordenes-menu-icon" transform="translate(11902 355)">
    <rect id="Rectángulo_24107" data-name="Rectángulo 24107" width="45" height="45" transform="translate(-11902 -355)" fill="#fff"/>
    <path id="delivery-truck" d="M35.032,87.791,33.4,83.956a.579.579,0,0,0-.543-.359H29.324a.591.591,0,0,0-.59.59v3.424a.591.591,0,0,0,.59.59h5.436a.295.295,0,0,0,.271-.41ZM19.068,78H15.853v5.24h3.215ZM8,95.163V92.552H26.449v3.79H18.716a3.6,3.6,0,1,0-7.2,0H9.18A1.182,1.182,0,0,1,8,95.163Zm0-3.554V79.178A1.182,1.182,0,0,1,9.18,78h5.73v5.594a.591.591,0,0,0,.59.59h3.922a.591.591,0,0,0,.59-.59V78H25.27a1.182,1.182,0,0,1,1.18,1.18V91.608Zm24.089,3.407a1.327,1.327,0,1,0,1.327,1.327A1.327,1.327,0,0,0,32.089,95.015Zm0-1.327a2.654,2.654,0,1,1-2.654,2.654A2.654,2.654,0,0,1,32.089,93.688ZM15.118,95.015a1.327,1.327,0,1,0,1.327,1.327A1.326,1.326,0,0,0,15.118,95.015Zm0-1.327a2.654,2.654,0,1,0,2.654,2.654A2.654,2.654,0,0,0,15.118,93.688Zm12.275-11.9H33.44a1.456,1.456,0,0,1,1.377.861l2.34,5.509a1.189,1.189,0,0,1,.1.487v6.816a.886.886,0,0,1-.885.885h-.685a3.6,3.6,0,1,0-7.2,0h-1.1Z" transform="translate(-11902 -420.998)" fill="#2674fb" fill-rule="evenodd"/>
  </g>
</svg>
