<svg xmlns="http://www.w3.org/2000/svg" width="26.173" height="26.173" viewBox="0 0 26.173 26.173">
  <g id="telefono" transform="translate(-18 -8)">
    <g id="telefono-2" data-name="telefono" transform="translate(18 8)">
      <path id="Trazado_8" data-name="Trazado 8" d="M13.17.083A13.087,13.087,0,1,1,.083,13.172,13.086,13.086,0,0,1,13.17.083Z" transform="translate(-0.083 -0.083)" fill="#fff" fill-rule="evenodd"/>
      <path id="Trazado_9" data-name="Trazado 9" d="M105.406,99.984a3.124,3.124,0,0,1,3.124,3.125.4.4,0,1,0,.8,0,3.924,3.924,0,0,0-3.923-3.923.4.4,0,1,0,0,.8Zm-.6,2.555a.4.4,0,1,1,0-.8,2.049,2.049,0,0,1,2.05,2.049.4.4,0,1,1-.8,0,1.251,1.251,0,0,0-1.251-1.251Zm2.6,9.873a10.67,10.67,0,0,1-3.593-1.465,19.8,19.8,0,0,1-6.241-6.242,10.658,10.658,0,0,1-1.465-3.593,1.773,1.773,0,0,1,.047-.847,1.792,1.792,0,0,1,.446-.719l1.664-1.663a.416.416,0,0,1,.586,0l2.989,2.988a.417.417,0,0,1,0,.587l-1.589,1.589a.671.671,0,0,0-.072.867,20.535,20.535,0,0,0,4.426,4.426.669.669,0,0,0,.867-.072l1.59-1.589a.41.41,0,0,1,.292-.121.416.416,0,0,1,.294.121l2.989,2.988a.417.417,0,0,1,0,.587l-1.664,1.664A1.718,1.718,0,0,1,107.4,112.413Zm-2-15.531a.4.4,0,0,1,0-.8,7.024,7.024,0,0,1,7.025,7.025.4.4,0,1,1-.8,0,6.227,6.227,0,0,0-6.226-6.227Z" transform="translate(-91.164 -91.176)" fill="#082f4a" fill-rule="evenodd"/>
    </g>
  </g>
</svg>
