<svg id="time-icon" xmlns="http://www.w3.org/2000/svg" width="26.262" height="26.173" viewBox="0 0 26.262 26.173">
  <ellipse id="Elipse_1" data-name="Elipse 1" cx="13.131" cy="13.087" rx="13.131" ry="13.087" transform="translate(0 0)" fill="#fff"/>
  <g id="time-left" transform="translate(5.097 5.077)">
    <g id="Layer_2_16_" transform="translate(0 0)">
      <g id="Grupo_4" data-name="Grupo 4">
        <path id="Trazado_11" data-name="Trazado 11" d="M253.6,423.175c-.133.033-.268.063-.4.087a.648.648,0,0,0,.236,1.275c.16-.03.322-.065.48-.1a.648.648,0,0,0-.313-1.258Z" transform="translate(-243.91 -408.547)" fill="#082f4a"/>
        <path id="Trazado_12" data-name="Trazado 12" d="M412.648,137.487a.648.648,0,0,0,1.231-.408c-.051-.155-.108-.31-.169-.461a.648.648,0,1,0-1.2.481C412.557,137.226,412.6,137.357,412.648,137.487Z" transform="translate(-398.164 -131.548)" fill="#082f4a"/>
        <path id="Trazado_13" data-name="Trazado 13" d="M321.542,394.019c-.114.076-.232.149-.351.217a.648.648,0,1,0,.648,1.123c.141-.082.282-.168.418-.258a.648.648,0,0,0-.715-1.082Z" transform="translate(-309.745 -380.317)" fill="#082f4a"/>
        <path id="Trazado_14" data-name="Trazado 14" d="M428.93,207.934a.648.648,0,1,0-1.3.051c.005.137.007.276,0,.412a.648.648,0,1,0,1.3.029C428.938,208.263,428.937,208.1,428.93,207.934Z" transform="translate(-412.813 -200.185)" fill="#082f4a"/>
        <path id="Trazado_15" data-name="Trazado 15" d="M378.076,344.2a.648.648,0,0,0-.908.13c-.082.11-.169.218-.258.322a.648.648,0,0,0,.073.914c.016.013.031.025.048.037a.648.648,0,0,0,.866-.11c.106-.124.209-.254.308-.385A.648.648,0,0,0,378.076,344.2Z" transform="translate(-363.698 -332.202)" fill="#082f4a"/>
        <path id="Trazado_16" data-name="Trazado 16" d="M414.742,279.382a.648.648,0,0,0-.812.425c-.041.13-.086.262-.135.39a.648.648,0,0,0,1.211.462c.058-.153.112-.309.161-.464A.648.648,0,0,0,414.742,279.382Z" transform="translate(-399.411 -269.728)" fill="#082f4a"/>
        <path id="Trazado_17" data-name="Trazado 17" d="M6.863,16.408A6.693,6.693,0,0,1,5.2,15.88l-.018-.01c-.124-.058-.248-.121-.368-.187h0a6.915,6.915,0,0,1-.645-.4A6.764,6.764,0,0,1,4.2,4.2l.023-.016a6.775,6.775,0,0,1,7.594-.061l-.506.732c-.141.2-.054.352.192.33l2.2-.2a.362.362,0,0,0,.328-.474l-.591-2.128c-.066-.239-.235-.267-.376-.064l-.508.733A8,8,0,0,0,6.685,1.808q-.311.054-.614.131h0l-.023.007a7.993,7.993,0,0,0-4.432,2.97c-.009.011-.019.022-.028.034-.037.05-.073.1-.109.151-.058.083-.116.168-.171.253-.007.01-.012.021-.018.031A7.991,7.991,0,0,0,.009,10.1c0,.005,0,.011,0,.017.007.163.02.327.038.49,0,.01,0,.02.005.031.018.163.041.327.069.49a8,8,0,0,0,2.256,4.338l.008.009,0,0a8.167,8.167,0,0,0,1.033.863,7.992,7.992,0,0,0,3.214,1.345.648.648,0,0,0,.229-1.276Z" transform="translate(0 -1.688)" fill="#082f4a"/>
        <path id="Trazado_18" data-name="Trazado 18" d="M206.512,83.2a.525.525,0,0,0-.525.524v5.225l4.779,2.47a.524.524,0,0,0,.482-.932l-4.211-2.177V83.722A.524.524,0,0,0,206.512,83.2Z" transform="translate(-198.848 -80.373)" fill="#082f4a"/>
      </g>
    </g>
  </g>
</svg>
