<svg id="Layer_5" xmlns="http://www.w3.org/2000/svg" width="29.801" height="29.8" viewBox="0 0 29.801 29.8">
  <path id="Trazado_94862" data-name="Trazado 94862" d="M25.188,1.1H6.813A5.72,5.72,0,0,0,1.1,6.813V25.188A5.719,5.719,0,0,0,6.813,30.9H25.188A5.72,5.72,0,0,0,30.9,25.188V6.813A5.721,5.721,0,0,0,25.188,1.1ZM29.1,25.188A3.917,3.917,0,0,1,25.188,29.1H6.813A3.917,3.917,0,0,1,2.9,25.188V6.813A3.915,3.915,0,0,1,6.813,2.9H25.188A3.917,3.917,0,0,1,29.1,6.813Z" transform="translate(-1.1 -1.1)" fill="#25385a"/>
  <path id="Trazado_94863" data-name="Trazado 94863" d="M19.466,19.786H12.534a4.6,4.6,0,0,0-4.6,4.366.9.9,0,1,0,1.8.092,2.8,2.8,0,0,1,2.8-2.659h6.932a2.8,2.8,0,0,1,2.8,2.659.9.9,0,0,0,.9.854h.047a.9.9,0,0,0,.853-.945A4.6,4.6,0,0,0,19.466,19.786Z" transform="translate(-1.1 -1.1)" fill="#25385a"/>
  <path id="Trazado_94864" data-name="Trazado 94864" d="M16,17.767a5.433,5.433,0,1,0-5.433-5.433A5.439,5.439,0,0,0,16,17.767ZM16,8.7a3.633,3.633,0,1,1-3.632,3.633A3.636,3.636,0,0,1,16,8.7Z" transform="translate(-1.1 -1.1)" fill="#25385a"/>
</svg>
