<svg xmlns="http://www.w3.org/2000/svg" width="42.602" height="30.415" viewBox="0 0 42.602 30.415">
  <g id="Layer_16" data-name="Layer 16" transform="translate(-0.003 -86.676)">
    <path id="Trazado_95002" data-name="Trazado 95002" d="M34.927,114.388,7.679,87.141l-.006-.007a1.582,1.582,0,1,0-2.228,2.247l2.386,2.386A27.678,27.678,0,0,0,.493,99.172a2.847,2.847,0,0,0,0,3.194c4.99,7.386,12.9,11.712,20.811,11.658a22.6,22.6,0,0,0,7.527-1.261l3.862,3.862a1.581,1.581,0,1,0,2.242-2.229ZM21.3,109.73a8.968,8.968,0,0,1-8.169-12.663l2.492,2.492a5.8,5.8,0,0,0,6.882,6.882L25,108.933A8.923,8.923,0,0,1,21.3,109.73Z" transform="translate(0)" fill="#25385a"/>
    <path id="Trazado_95003" data-name="Trazado 95003" d="M193.878,108.307c-4.99-7.39-12.9-11.716-20.811-11.662a22.6,22.6,0,0,0-7.527,1.261l3.828,3.828A8.968,8.968,0,0,1,181.235,113.6l5.3,5.3a27.666,27.666,0,0,0,7.339-7.406,2.847,2.847,0,0,0,0-3.193Z" transform="translate(-151.763 -9.139)" fill="#25385a"/>
    <path id="Trazado_95004" data-name="Trazado 95004" d="M242.724,186.26a5.814,5.814,0,0,0-1.2.126l6.881,6.881a5.8,5.8,0,0,0-5.676-7.008Z" transform="translate(-221.42 -91.298)" fill="#25385a"/>
  </g>
</svg>
