<svg xmlns="http://www.w3.org/2000/svg" width="21.758" height="27.197" viewBox="0 0 21.758 27.197">
  <g id="Layer_11" data-name="Layer 11" transform="translate(-4 -1)">
    <path id="Trazado_94756" data-name="Trazado 94756" d="M22.132,10.583h-.48V7.772a6.772,6.772,0,0,0-13.544,0v2.81h-.48A3.626,3.626,0,0,0,4,14.209V24.571A3.626,3.626,0,0,0,7.626,28.2H22.132a3.626,3.626,0,0,0,3.626-3.626V14.209A3.626,3.626,0,0,0,22.132,10.583ZM9.92,7.772a4.959,4.959,0,0,1,9.918,0v2.81H9.92Zm14.025,16.8a1.813,1.813,0,0,1-1.813,1.813H7.626a1.813,1.813,0,0,1-1.813-1.813V14.209A1.813,1.813,0,0,1,7.626,12.4H22.132a1.813,1.813,0,0,1,1.813,1.813Z" transform="translate(0 0)" fill="#25385a"/>
    <path id="Trazado_94757" data-name="Trazado 94757" d="M15.818,17.926a1.766,1.766,0,0,0-1.228,3.035v2.149a.907.907,0,0,0,.907.907h.642a.907.907,0,0,0,.907-.907V20.961a1.766,1.766,0,0,0-1.228-3.035Z" transform="translate(-0.939 -1.581)" fill="#25385a"/>
  </g>
</svg>
