<svg id="user_3_" data-name="user (3)" xmlns="http://www.w3.org/2000/svg" width="24.563" height="24.563" viewBox="0 0 24.563 24.563">
  <g id="Grupo_40473" data-name="Grupo 40473" transform="translate(0)">
    <path id="Trazado_94758" data-name="Trazado 94758" d="M20.965,15.878A12.234,12.234,0,0,0,16.3,12.951a7.1,7.1,0,1,0-8.034,0A12.3,12.3,0,0,0,0,24.562H1.919a10.362,10.362,0,1,1,20.725,0h1.919A12.2,12.2,0,0,0,20.965,15.878Zm-8.684-3.6A5.181,5.181,0,1,1,17.462,7.1,5.187,5.187,0,0,1,12.281,12.281Z" transform="translate(0 0)" fill="#25385a"/>
  </g>
</svg>
