<svg xmlns="http://www.w3.org/2000/svg" width="75" height="89" viewBox="0 0 75 89">
  <g id="Grupo_41411" data-name="Grupo 41411" transform="translate(8717 -6822)">
    <rect id="Rectángulo_24121" data-name="Rectángulo 24121" width="75" height="89" transform="translate(-8717 6822)" fill="none"/>
    <g id="Grupo_41410" data-name="Grupo 41410" transform="translate(-8710.001 6826)">
      <path id="Trazado_95005" data-name="Trazado 95005" d="M1478.878,2.193c-.135,1.485-.358,2.969-.39,4.457a31.979,31.979,0,0,0,4.774,17.239c2.826,4.747,5.907,9.353,9.067,13.888,3.519,5.05,6.368,10.36,7.25,16.519a74.163,74.163,0,0,1,.911,9.612c.056,4.775-.2,9.556-.415,14.331a14.036,14.036,0,0,1-.727,3.053,1.285,1.285,0,0,1-1.513,1.06c-.858-.142-.719-.887-.688-1.472.106-2.061.43-4.127.349-6.179a27.7,27.7,0,0,0-4-12.7c-2-3.5-4.286-6.838-6.532-10.19-3.451-5.148-6.81-10.378-8.263-16.467a117.949,117.949,0,0,1-2.174-13.131,82.434,82.434,0,0,1-.236-16.168c.1-1.283.279-2.559.427-3.838a2.082,2.082,0,0,1,.112-.391A1.156,1.156,0,0,1,1478.3.911c.362.118.557.751.826,1.152l-.248.13" transform="translate(-1476.008 -0.678)" fill="#003865"/>
      <path id="Trazado_95006" data-name="Trazado 95006" d="M1679.03,11.876a99.17,99.17,0,0,1-2.766,22.481c-1.59,6.234-4.928,11.66-8.6,16.866a71.389,71.389,0,0,0-7.959,13.35,25.894,25.894,0,0,0-2.31,11.865c.076,1.113.291,2.216.379,3.329.049.614.232,1.427-.651,1.593a1.243,1.243,0,0,1-1.443-1.14,38.817,38.817,0,0,1-.959-5.584c-.2-3.861-.338-7.74-.207-11.6.223-6.631.889-13.253,4.055-19.23a104.4,104.4,0,0,1,6.291-9.861c3.123-4.571,6.3-9.1,8.617-14.157a32.413,32.413,0,0,0,3.136-13.763,38.224,38.224,0,0,0-.433-4.342c-.081-.68-.3-1.417.617-1.654.668-.171,1.3.463,1.389,1.419.3,3.474.566,6.952.844,10.429" transform="translate(-1618.049 -0.001)" fill="#0277ad"/>
    </g>
  </g>
</svg>
