<svg xmlns="http://www.w3.org/2000/svg" width="62" height="62" viewBox="0 0 62 62">
  <g id="Grupo_41406" data-name="Grupo 41406" transform="translate(265 -6696)">
    <rect id="Rectángulo_24120" data-name="Rectángulo 24120" width="62" height="62" transform="translate(-265 6696)" fill="none"/>
    <g id="Grupo_41402" data-name="Grupo 41402" transform="translate(-256 6703)">
      <text id="Crear" transform="translate(0 43.876)" fill="#25385a" font-size="16" font-family="Montserrat-Medium, Montserrat" font-weight="500"><tspan x="0" y="0">Crear</tspan></text>
      <g id="Layer_2" data-name="Layer 2" transform="translate(9.307 0)">
        <path id="Trazado_94956" data-name="Trazado 94956" d="M22.888,1H8.027A3.039,3.039,0,0,0,5.08,3.327H19.017A4.6,4.6,0,0,1,23.6,7.911V21.848A3.039,3.039,0,0,0,25.928,18.9V4.04A3.04,3.04,0,0,0,22.888,1Z" transform="translate(-0.333 -1)" fill="#25385a"/>
        <path id="Trazado_94957" data-name="Trazado 94957" d="M18.9,5H4.04A3.043,3.043,0,0,0,1,8.04V22.9a3.043,3.043,0,0,0,3.04,3.04H18.9a3.043,3.043,0,0,0,3.04-3.04V8.04A3.043,3.043,0,0,0,18.9,5ZM16.124,16.634h-3.49v3.49a1.163,1.163,0,0,1-2.327,0v-3.49H6.817a1.163,1.163,0,1,1,0-2.327h3.49v-3.49a1.163,1.163,0,0,1,2.327,0v3.49h3.49a1.163,1.163,0,1,1,0,2.327Z" transform="translate(-1 -0.346)" fill="#25385a"/>
      </g>
    </g>
  </g>
</svg>
