<svg xmlns="http://www.w3.org/2000/svg" width="13.199" height="14.995" viewBox="0 0 13.199 14.995">
  <g id="ic_Attachment" transform="translate(-307.333 -307.5)">
    <path id="Shape" d="M1.428,6.5,6.866,1.058a3.611,3.611,0,0,1,5.107,5.107L6.535,11.6A2.223,2.223,0,0,1,3.429,8.423l5.4-5.4A.833.833,0,0,1,10.009,4.2l-5.4,5.4a.556.556,0,0,0,.786.786l5.4-5.4a1.944,1.944,0,1,0-2.75-2.75l-5.4,5.4a3.333,3.333,0,0,0,4.714,4.714l4.419-4.419a.833.833,0,0,1,1.179,1.179L8.536,13.53A5,5,0,0,1,1.428,6.5Z" transform="translate(307.333 307.5)" fill="#fafafb" fill-rule="evenodd"/>
  </g>
</svg>
