<svg xmlns="http://www.w3.org/2000/svg" width="159.24" height="83.764" viewBox="0 0 159.24 83.764">
  <g id="Grupo_41409" data-name="Grupo 41409" transform="translate(-90.49 -2051.153)">
    <rect id="Rectángulo_24030" data-name="Rectángulo 24030" width="159.24" height="83.764" transform="translate(90.49 2051.153)" fill="none"/>
    <g id="Grupo_41209" data-name="Grupo 41209" transform="translate(138.19 2066.277)">
      <text id="User_Pages" data-name="User Pages" transform="translate(0 49.065)" fill="#fff" font-size="13" font-family="Montserrat-Bold, Montserrat" font-weight="700"><tspan x="0" y="0">Catálogo</tspan></text>
      <g id="Solid-Black" transform="translate(18.614 0)">
        <path id="Trazado_94764" data-name="Trazado 94764" d="M5,4.49V31.248a3.491,3.491,0,0,0,3.49,3.49H27.1a3.491,3.491,0,0,0,3.49-3.49V9.144a3.491,3.491,0,0,0-2.327-3.29V4.49A3.491,3.491,0,0,0,24.778,1H8.49A3.491,3.491,0,0,0,5,4.49ZM15.272,21.658,9.994,26.936a1.163,1.163,0,0,0,1.645,1.645L16.917,23.3a5.817,5.817,0,1,0-1.645-1.645Zm4.853-6.7a3.49,3.49,0,1,1-3.49,3.49A3.491,3.491,0,0,1,20.124,14.961ZM7.327,4.49A1.164,1.164,0,0,1,8.49,3.327H24.778A1.164,1.164,0,0,1,25.941,4.49V5.654H8.49A1.164,1.164,0,0,1,7.327,4.49Z" transform="translate(-5 -1)" fill="#fff" fill-rule="evenodd"/>
      </g>
    </g>
  </g>
</svg>
