<svg xmlns="http://www.w3.org/2000/svg" width="159.24" height="83.764" viewBox="0 0 159.24 83.764">
  <g id="Grupo_41409" data-name="Grupo 41409" transform="translate(-90.49 -2139.772)">
    <rect id="Rectángulo_24105" data-name="Rectángulo 24105" width="159.24" height="83.764" transform="translate(90.49 2139.772)" fill="none"/>
    <g id="Grupo_41292" data-name="Grupo 41292" transform="translate(139.353 2156.061)">
      <text id="User_Pages" data-name="User Pages" transform="translate(0 47.701)" fill="#fff" font-size="13" font-family="Montserrat-Bold, Montserrat" font-weight="700"><tspan x="0" y="0">Facturas</tspan></text>
      <g id="Icon" transform="translate(12.797)">
        <path id="Trazado_94891" data-name="Trazado 94891" d="M8.923,29.833a1.335,1.335,0,1,1,0-2.669h4.911v-.445a12.67,12.67,0,0,1,1.388-5.783h-6.3a1.335,1.335,0,0,1,0-2.669h8.061A13.275,13.275,0,0,1,20.205,15.6H8.923a1.335,1.335,0,1,1,0-2.669H21.38a1.352,1.352,0,0,1,1.335,1.335v.214a12.652,12.652,0,0,1,4-.658,11.176,11.176,0,0,1,1.335,0V5.364A3.132,3.132,0,0,0,24.939,2.25H5.364A3.132,3.132,0,0,0,2.25,5.364V32.057a3.132,3.132,0,0,0,3.114,3.114H17a12.635,12.635,0,0,1-2.794-5.339Zm0-22.244H21.38a1.335,1.335,0,1,1,0,2.669H8.923a1.335,1.335,0,1,1,0-2.669Zm17.8,8.9A10.232,10.232,0,1,0,36.951,26.718,10.232,10.232,0,0,0,26.718,16.486Zm1.068,15.019v.552a1.068,1.068,0,1,1-2.135,0V31.47a5.2,5.2,0,0,1-1.619-.587,1.068,1.068,0,1,1,1.086-1.78,3.079,3.079,0,0,0,1.53.409h.427a.73.73,0,0,0,.73-.712.712.712,0,0,0-.48-.676L25.4,27.43a2.847,2.847,0,0,1-1.9-2.687,2.883,2.883,0,0,1,2.153-2.758V21.38a1.068,1.068,0,0,1,2.135,0v.587a5.2,5.2,0,0,1,1.619.587,1.068,1.068,0,1,1-1.086,1.78,3.079,3.079,0,0,0-1.53-.409h-.427a.73.73,0,0,0-.73.712.712.712,0,0,0,.48.676l1.922.694a2.847,2.847,0,0,1,1.9,2.687,2.883,2.883,0,0,1-2.153,2.812Z" transform="translate(-2.25 -2.25)" fill="#fff"/>
      </g>
    </g>
  </g>
</svg>
