<svg xmlns="http://www.w3.org/2000/svg" width="159.24" height="83.764" viewBox="0 0 159.24 83.764">
  <g id="Grupo_41409" data-name="Grupo 41409" transform="translate(-90.49 -1329.13)">
    <path id="Trazado_94977" data-name="Trazado 94977" d="M0,0H159.24V83.764H0Z" transform="translate(90.49 1329.13)" fill="none"/>
    <g id="Grupo_41276" data-name="Grupo 41276" transform="translate(102.124 1344.254)">
      <text id="User_Pages" data-name="User Pages" transform="translate(0 49.571)" fill="#fff" font-size="13" font-family="Montserrat-Bold, Montserrat" font-weight="700"><tspan x="0" y="0">Insumos solicitados</tspan></text>
      <g id="centrifuge" transform="translate(52.353 0)">
        <g id="Grupo_40720" data-name="Grupo 40720" transform="translate(0)">
          <g id="XMLID_1_">
            <path id="Trazado_94838" data-name="Trazado 94838" d="M293.058,50.96v2.807a.16.16,0,0,1-.16.16h-.383a.275.275,0,0,0-.089-.009.3.3,0,0,0-.089.009H290.3a.275.275,0,0,0-.089-.009.3.3,0,0,0-.089.009h-8.376a.275.275,0,0,0-.089-.009.3.3,0,0,0-.089.009h-2.041a.45.45,0,0,0-.178,0h-.383a.16.16,0,0,1-.16-.16V50.96a.16.16,0,0,1,.16-.16h1.4v1.559a.437.437,0,0,0,.437.437.443.443,0,0,0,.437-.437V50.8h1.693v1.559a.437.437,0,1,0,.873,0V50.8h1.693v1.559a.437.437,0,1,0,.873,0V50.8h1.693v1.559a.437.437,0,0,0,.873,0V50.8h1.693v1.559a.437.437,0,0,0,.873,0V50.8h1.4A.166.166,0,0,1,293.058,50.96Z" transform="translate(-260.479 -50.8)" fill="#fff"/>
            <path id="Trazado_94839" data-name="Trazado 94839" d="M302.919,95.6v26.519a6.06,6.06,0,0,1-12.119,0V95.6h1.346v26.519a4.714,4.714,0,1,0,9.428,0V95.6Z" transform="translate(-271.41 -91.608)" fill="#fff"/>
            <path id="Trazado_94840" data-name="Trazado 94840" d="M323.381,95.6v26.519a3.841,3.841,0,0,1-7.681,0v-4.6h2.958a.955.955,0,0,0,.953-.953V104.983a.943.943,0,0,0-.953-.953H315.7V95.6Z" transform="translate(-294.091 -91.608)" fill="#fff"/>
            <path id="Trazado_94841" data-name="Trazado 94841" d="M318.739,200.08v11.584a.08.08,0,0,1-.08.08H315.7V200h2.958A.08.08,0,0,1,318.739,200.08Z" transform="translate(-294.091 -186.705)" fill="#fff"/>
            <path id="Trazado_94842" data-name="Trazado 94842" d="M87.458,50.96v2.807a.16.16,0,0,1-.16.16h-.374a.45.45,0,0,0-.178,0H84.7a.45.45,0,0,0-.178,0H76.141a.45.45,0,0,0-.178,0H73.931a.45.45,0,0,0-.178,0H73.36a.16.16,0,0,1-.16-.16V50.96a.16.16,0,0,1,.16-.16h1.4v1.559a.437.437,0,0,0,.873,0V50.8h1.693v1.559a.437.437,0,1,0,.873,0V50.8h1.693v1.559a.437.437,0,1,0,.873,0V50.8h1.693v1.559a.437.437,0,1,0,.873,0V50.8h1.693v1.559a.437.437,0,0,0,.873,0V50.8h1.408a.157.157,0,0,1,.116.053A.21.21,0,0,1,87.458,50.96Z" transform="translate(-73.2 -50.8)" fill="#fff"/>
            <path id="Trazado_94843" data-name="Trazado 94843" d="M97.419,95.6v26.519a6.06,6.06,0,1,1-12.119,0V95.6h1.337v26.519a4.714,4.714,0,0,0,9.428,0V95.6Z" transform="translate(-84.222 -91.608)" fill="#fff"/>
            <path id="Trazado_94844" data-name="Trazado 94844" d="M113.13,200.08v11.584a.08.08,0,0,1-.08.08H110.1V200h2.95A.08.08,0,0,1,113.13,200.08Z" transform="translate(-106.812 -186.705)" fill="#fff"/>
            <path id="Trazado_94845" data-name="Trazado 94845" d="M117.781,95.6v26.519a3.841,3.841,0,0,1-7.681,0v-4.6h2.95a.943.943,0,0,0,.953-.953V104.983a.943.943,0,0,0-.953-.953H110.1V95.6Z" transform="translate(-106.812 -91.608)" fill="#fff"/>
          </g>
        </g>
      </g>
    </g>
  </g>
</svg>
