<svg xmlns="http://www.w3.org/2000/svg" width="159.24" height="83.764" viewBox="0 0 159.24 83.764">
  <g id="Grupo_41409" data-name="Grupo 41409" transform="translate(-87 -1060.875)">
    <rect id="Rectángulo_24032" data-name="Rectángulo 24032" width="159.24" height="83.764" transform="translate(87 1060.875)" fill="none"/>
    <g id="Grupo_41211" data-name="Grupo 41211" transform="translate(102.124 1077.162)">
      <text id="User_Pages" data-name="User Pages" transform="translate(0 47.4)" fill="#fff" font-size="13" font-family="Montserrat-Bold, Montserrat" font-weight="700"><tspan x="0" y="0">Nueva recolección</tspan></text>
      <path id="delivery-truck" d="M52.285,94.041l-2.668-6.281a.949.949,0,0,0-.889-.589H42.935a.968.968,0,0,0-.966.966v5.609a.968.968,0,0,0,.966.966h8.906a.483.483,0,0,0,.445-.672ZM26.132,78H20.866v8.585h5.266ZM8,106.118v-4.277H38.224v6.209H25.555a5.895,5.895,0,0,0-11.789,0H9.933A1.936,1.936,0,0,1,8,106.118ZM8,100.3V79.931A1.936,1.936,0,0,1,9.933,78h9.387v9.165a.968.968,0,0,0,.966.966h6.426a.968.968,0,0,0,.966-.966V78h8.614a1.936,1.936,0,0,1,1.933,1.933V100.3Zm39.463,5.581a2.174,2.174,0,1,0,2.174,2.174A2.173,2.173,0,0,0,47.463,105.877Zm0-2.174a4.348,4.348,0,1,1-4.348,4.348A4.348,4.348,0,0,1,47.463,103.7Zm-27.8,2.174a2.174,2.174,0,1,0,2.174,2.174A2.173,2.173,0,0,0,19.661,105.877Zm0-2.174a4.348,4.348,0,1,0,4.348,4.348A4.348,4.348,0,0,0,19.661,103.7Zm20.11-19.5h9.907a2.385,2.385,0,0,1,2.255,1.41l3.833,9.026a1.948,1.948,0,0,1,.164.8V106.6a1.452,1.452,0,0,1-1.449,1.449H53.358a5.895,5.895,0,1,0-11.789,0h-1.8Z" transform="translate(32.719 -77.998)" fill="#fff" fill-rule="evenodd"/>
    </g>
  </g>
</svg>
