<svg xmlns="http://www.w3.org/2000/svg" width="159.24" height="83.764" viewBox="0 0 159.24 83.764">
  <g id="Grupo_41409" data-name="Grupo 41409" transform="translate(-90.49 -1960.847)">
    <rect id="Rectángulo_24044" data-name="Rectángulo 24044" width="159.24" height="83.764" transform="translate(90.49 1960.847)" fill="none"/>
    <g id="Grupo_41256" data-name="Grupo 41256" transform="translate(131.209 1974.807)">
      <g id="data-management" transform="translate(20.941 0)">
        <path id="Trazado_94765" data-name="Trazado 94765" d="M34,38V48.282H46.852V38Zm6.426,9a3.856,3.856,0,1,1,3.856-3.856A3.856,3.856,0,0,1,40.426,47Z" transform="translate(-13.436 -14.866)" fill="#fff"/>
        <path id="Trazado_94766" data-name="Trazado 94766" d="M9.57,19.285a1.285,1.285,0,0,0-2.57,0v.643H9.57Z" transform="translate(-3.787 -7.718)" fill="#fff"/>
        <path id="Trazado_94767" data-name="Trazado 94767" d="M2,19.639h8.354A.643.643,0,0,0,11,19V10H2Zm1.928-2.57v-.643a2.558,2.558,0,0,1,1.04-2.053,1.929,1.929,0,1,1,3.06,0,2.558,2.558,0,0,1,1.04,2.056v.643a.643.643,0,1,1,0,1.285H3.928a.643.643,0,1,1,0-1.285Z" transform="translate(-2 -4.859)" fill="#fff"/>
        <path id="Trazado_94768" data-name="Trazado 94768" d="M41.927,44.621V42.142a2.565,2.565,0,1,0,3.122,3.122H42.57A.643.643,0,0,1,41.927,44.621Z" transform="translate(-15.58 -16.346)" fill="#fff"/>
        <circle id="Elipse_77" data-name="Elipse 77" cx="0.486" cy="0.486" r="0.486" transform="translate(3.89 7.781)" fill="#fff"/>
        <path id="Trazado_94769" data-name="Trazado 94769" d="M45,42.142v1.837h1.837A2.565,2.565,0,0,0,45,42.142Z" transform="translate(-17.367 -16.346)" fill="#fff"/>
        <path id="Trazado_94770" data-name="Trazado 94770" d="M18.852,38H6V48.282H18.852Zm-1.928,9H8.57a1.285,1.285,0,0,1-1.285-1.285V39.928a.643.643,0,1,1,1.285,0v5.784H9.856V41.856a.643.643,0,1,1,1.285,0v3.856h1.285V41.856a.643.643,0,1,1,1.285,0v3.856H15V41.856a.643.643,0,1,1,1.285,0v3.856h.643a.643.643,0,1,1,0,1.285Z" transform="translate(-3.43 -14.866)" fill="#fff"/>
        <path id="Trazado_94771" data-name="Trazado 94771" d="M2,39.561a1.285,1.285,0,0,0,1.285,1.285H36.7a1.285,1.285,0,0,0,1.285-1.285V10h-25.7v9a1.928,1.928,0,0,1-1.928,1.928H2Zm34.7-1.285a1.285,1.285,0,0,1-1.285,1.285H22.564a1.285,1.285,0,0,1-1.285-1.285V27.993a1.285,1.285,0,0,1,1.285-1.285H35.416A1.285,1.285,0,0,1,36.7,27.993ZM13.567,13.213a1.285,1.285,0,0,1,1.285-1.285H35.416A1.285,1.285,0,0,1,36.7,13.213V23.5a1.285,1.285,0,0,1-1.285,1.285H14.852A1.285,1.285,0,0,1,13.567,23.5ZM3.285,27.993A1.285,1.285,0,0,1,4.57,26.708H17.423a1.285,1.285,0,0,1,1.285,1.285V38.275a1.285,1.285,0,0,1-1.285,1.285H4.57a1.285,1.285,0,0,1-1.285-1.285Z" transform="translate(-2 -4.859)" fill="#fff"/>
        <path id="Trazado_94772" data-name="Trazado 94772" d="M42.564,15H22V25.282H42.564Zm-1.928,4.5a.643.643,0,1,1-1.285,0V18.479l-4.044,4.044a.643.643,0,0,1-.909,0l-2.116-2.116-2.759,2.759a.643.643,0,0,1-.909,0l-1.474-1.474-2.116,2.116a.643.643,0,1,1-.909-.909l2.571-2.57a.643.643,0,0,1,.909,0L29.069,21.8l2.759-2.759a.643.643,0,0,1,.909,0l2.116,2.116,3.59-3.59H37.423a.643.643,0,1,1,0-1.285h2.57a.643.643,0,0,1,.643.643Z" transform="translate(-9.148 -6.646)" fill="#fff"/>
        <path id="Trazado_94773" data-name="Trazado 94773" d="M37.987,3.285A1.285,1.285,0,0,0,36.7,2H3.285A1.285,1.285,0,0,0,2,3.285v2.57H37.987ZM4.57,4.57H3.928a.643.643,0,1,1,0-1.285H4.57a.643.643,0,1,1,0,1.285Zm3.213,0H7.141a.643.643,0,1,1,0-1.285h.643a.643.643,0,1,1,0,1.285ZM11,4.57h-.643a.643.643,0,1,1,0-1.285H11A.643.643,0,1,1,11,4.57Zm25.062,0H29.633a.643.643,0,0,1,0-1.285h6.426a.643.643,0,1,1,0,1.285Z" transform="translate(-2 -2)" fill="#fff"/>
      </g>
      <text id="User_Pages" data-name="User Pages" transform="translate(0 51.353)" fill="#fff" font-size="13" font-family="Montserrat-Bold, Montserrat" font-weight="700"><tspan x="0" y="0">Dashboard</tspan></text>
    </g>
  </g>
</svg>
