<svg xmlns="http://www.w3.org/2000/svg" width="62" height="62" viewBox="0 0 62 62">
  <g id="Grupo_41405" data-name="Grupo 41405" transform="translate(347 -6696)">
    <rect id="Rectángulo_24120" data-name="Rectángulo 24120" width="62" height="62" transform="translate(-347 6696)" fill="none"/>
    <g id="Grupo_41401" data-name="Grupo 41401" transform="translate(-334 6705)">
      <g id="Group" transform="translate(5.817 0)">
        <path id="Vector" d="M7.363,3.681a3.681,3.681,0,1,1-1.078-2.6,3.681,3.681,0,0,1,1.078,2.6Z" transform="translate(8.099 4.418)" fill="#25385a"/>
        <path id="Vector-2" data-name="Vector" d="M0,8.1S4.418,0,11.78,0,23.56,8.1,23.56,8.1s-4.418,8.1-11.78,8.1S0,8.1,0,8.1Zm11.78,5.154a5.154,5.154,0,1,0-3.644-1.51,5.154,5.154,0,0,0,3.644,1.51Z" transform="translate(0 0)" fill="#25385a"/>
      </g>
      <text id="Leer" transform="translate(0 40.199)" fill="#25385a" font-size="16" font-family="Montserrat-Medium, Montserrat" font-weight="500"><tspan x="0" y="0">Leer</tspan></text>
    </g>
  </g>
</svg>
