<svg xmlns="http://www.w3.org/2000/svg" width="53" height="48" viewBox="0 0 53 48">
  <g id="Grupo_41419" data-name="Grupo 41419" transform="translate(-16 -4)">
    <rect id="Rectángulo_24125" data-name="Rectángulo 24125" width="53" height="48" rx="5" transform="translate(16 4)" fill="#2674fb"/>
    <g id="Line" transform="translate(25 10.254)">
      <g id="Grupo_41419-2" data-name="Grupo 41419" transform="translate(0 1.746)">
        <path id="Trazado_95008" data-name="Trazado 95008" d="M31.183,24.47a16.006,16.006,0,1,0-16.57,8.387,16.876,16.876,0,0,0,2.4.175,15.857,15.857,0,0,0,7.441-1.849l4.3,1.15a2.921,2.921,0,0,0,3.582-3.567Zm-2.825-.917a1.456,1.456,0,0,0-.146,1.107l1.31,4.863-4.863-1.31a1.456,1.456,0,0,0-1.107.146,12.959,12.959,0,0,1-8.518,1.616A13.1,13.1,0,0,1,17.015,3.91a10.658,10.658,0,0,1,1.179,0A13.1,13.1,0,0,1,28.387,23.495Z" transform="translate(-0.006 -1.005)" fill="#fff"/>
        <circle id="Elipse_89" data-name="Elipse 89" cx="2.184" cy="2.184" r="2.184" transform="translate(7.273 13.826)" fill="#fff"/>
        <circle id="Elipse_90" data-name="Elipse 90" cx="2.184" cy="2.184" r="2.184" transform="translate(13.826 13.826)" fill="#fff"/>
        <circle id="Elipse_91" data-name="Elipse 91" cx="2.184" cy="2.184" r="2.184" transform="translate(20.378 13.826)" fill="#fff"/>
      </g>
    </g>
  </g>
</svg>
