<svg xmlns="http://www.w3.org/2000/svg" width="65" height="65" viewBox="0 0 65 65">
  <g id="Grupo_41391" data-name="Grupo 41391" transform="translate(933 -6665)">
    <rect id="Rectángulo_24119" data-name="Rectángulo 24119" width="65" height="65" transform="translate(-933 6665)" fill="none"/>
    <g id="Grupo_41385" data-name="Grupo 41385" transform="translate(-1441 6592)">
      <text id="User_Pages" data-name="User Pages" transform="translate(514 127)" fill="#25385a" font-size="12" font-family="Montserrat-Regular, Montserrat"><tspan x="0" y="0">Catálogo</tspan></text>
      <g id="Solid-Black" transform="translate(525 81)">
        <path id="Trazado_94764" data-name="Trazado 94764" d="M5,4V27a3,3,0,0,0,3,3H24a3,3,0,0,0,3-3V8a3,3,0,0,0-2-2.828V4a3,3,0,0,0-3-3H8A3,3,0,0,0,5,4Zm8.829,14.757L9.293,23.293a1,1,0,0,0,1.414,1.414l4.536-4.536a5,5,0,1,0-1.414-1.414ZM18,13a3,3,0,1,1-3,3A3,3,0,0,1,18,13ZM7,4A1,1,0,0,1,8,3H22a1,1,0,0,1,1,1V5H8A1,1,0,0,1,7,4Z" fill="#3e95f8" fill-rule="evenodd"/>
      </g>
    </g>
  </g>
</svg>
