<svg xmlns="http://www.w3.org/2000/svg" width="65" height="65" viewBox="0 0 65 65">
  <g id="Grupo_41392" data-name="Grupo 41392" transform="translate(848 -6665)">
    <rect id="Rectángulo_24119" data-name="Rectángulo 24119" width="65" height="65" transform="translate(-848 6665)" fill="none"/>
    <g id="Grupo_41386" data-name="Grupo 41386" transform="translate(-1592 6614.933)">
      <g id="data-management" transform="translate(759 56.067)">
        <path id="Trazado_94765" data-name="Trazado 94765" d="M34,38v8.838H45.047V38Zm5.524,7.733a3.314,3.314,0,1,1,3.314-3.314A3.314,3.314,0,0,1,39.524,45.733Z" transform="translate(-14.324 -16.115)" fill="#3e95f8"/>
        <path id="Trazado_94766" data-name="Trazado 94766" d="M9.209,19.1A1.1,1.1,0,1,0,7,19.1v.552H9.209Z" transform="translate(-2.238 -7.162)" fill="#3e95f8"/>
        <path id="Trazado_94767" data-name="Trazado 94767" d="M2,18.286H9.181a.552.552,0,0,0,.552-.552V10H2Zm1.657-2.209v-.552a2.2,2.2,0,0,1,.894-1.765,1.658,1.658,0,1,1,2.63,0,2.2,2.2,0,0,1,.894,1.768v.552a.552.552,0,1,1,0,1.1H3.657a.552.552,0,0,1,0-1.1Z" transform="translate(0 -3.581)" fill="#3e95f8"/>
        <path id="Trazado_94768" data-name="Trazado 94768" d="M41.657,44.273V42.142a2.205,2.205,0,1,0,2.683,2.683H42.209A.552.552,0,0,1,41.657,44.273Z" transform="translate(-17.009 -17.969)" fill="#3e95f8"/>
        <circle id="Elipse_77" data-name="Elipse 77" cx="0.418" cy="0.418" r="0.418" transform="translate(5.344 8.688)" fill="#3e95f8"/>
        <path id="Trazado_94769" data-name="Trazado 94769" d="M45,42.142v1.579h1.579A2.2,2.2,0,0,0,45,42.142Z" transform="translate(-19.248 -17.969)" fill="#3e95f8"/>
        <path id="Trazado_94770" data-name="Trazado 94770" d="M17.047,38H6v8.838H17.047ZM15.39,45.733H8.209a1.1,1.1,0,0,1-1.1-1.1V39.657a.552.552,0,1,1,1.1,0v4.971h1.1V41.314a.552.552,0,1,1,1.1,0v3.314h1.1V41.314a.552.552,0,1,1,1.1,0v3.314h1.1V41.314a.552.552,0,1,1,1.1,0v3.314h.552a.552.552,0,0,1,0,1.1Z" transform="translate(-1.791 -16.115)" fill="#3e95f8"/>
        <path id="Trazado_94771" data-name="Trazado 94771" d="M2,35.409a1.1,1.1,0,0,0,1.1,1.1H31.828a1.1,1.1,0,0,0,1.1-1.1V10H10.838v7.733A1.657,1.657,0,0,1,9.181,19.39H2Zm29.828-1.1a1.1,1.1,0,0,1-1.1,1.1H19.676a1.1,1.1,0,0,1-1.1-1.1V25.466a1.1,1.1,0,0,1,1.1-1.1H30.723a1.1,1.1,0,0,1,1.1,1.1ZM11.943,12.762a1.1,1.1,0,0,1,1.1-1.1H30.723a1.1,1.1,0,0,1,1.1,1.1V21.6a1.1,1.1,0,0,1-1.1,1.1H13.047a1.1,1.1,0,0,1-1.1-1.1ZM3.1,25.466a1.1,1.1,0,0,1,1.1-1.1H15.257a1.1,1.1,0,0,1,1.1,1.1V34.3a1.1,1.1,0,0,1-1.1,1.1H4.209a1.1,1.1,0,0,1-1.1-1.1Z" transform="translate(0 -3.581)" fill="#3e95f8"/>
        <path id="Trazado_94772" data-name="Trazado 94772" d="M39.676,15H22v8.838H39.676Zm-1.657,3.867a.552.552,0,1,1-1.1,0v-.876l-3.476,3.476a.552.552,0,0,1-.781,0l-1.819-1.819-2.371,2.371a.552.552,0,0,1-.781,0l-1.267-1.267L24.6,22.571a.552.552,0,1,1-.781-.781l2.21-2.209a.552.552,0,0,1,.781,0l1.267,1.267,2.371-2.371a.552.552,0,0,1,.781,0L33.047,20.3l3.086-3.086h-.876a.552.552,0,1,1,0-1.1h2.209a.552.552,0,0,1,.552.552Z" transform="translate(-8.953 -5.819)" fill="#3e95f8"/>
        <path id="Trazado_94773" data-name="Trazado 94773" d="M32.933,3.1a1.1,1.1,0,0,0-1.1-1.1H3.1A1.1,1.1,0,0,0,2,3.1V5.314H32.933ZM4.209,4.209H3.657a.552.552,0,0,1,0-1.1h.552a.552.552,0,1,1,0,1.1Zm2.762,0H6.419a.552.552,0,1,1,0-1.1h.552a.552.552,0,1,1,0,1.1Zm2.762,0H9.181a.552.552,0,1,1,0-1.1h.552a.552.552,0,1,1,0,1.1Zm21.542,0H25.752a.552.552,0,0,1,0-1.1h5.524a.552.552,0,1,1,0,1.1Z" fill="#3e95f8"/>
      </g>
      <text id="User_Pages" data-name="User Pages" transform="translate(749 104.067)" fill="#25385a" font-size="10" font-family="Montserrat-Regular, Montserrat"><tspan x="0" y="0">Dashboard</tspan></text>
    </g>
  </g>
</svg>
