<svg xmlns="http://www.w3.org/2000/svg" width="65" height="65" viewBox="0 0 65 65">
  <g id="Grupo_41393" data-name="Grupo 41393" transform="translate(761 -6665)">
    <rect id="Rectángulo_24119" data-name="Rectángulo 24119" width="65" height="65" transform="translate(-761 6665)" fill="none"/>
    <g id="Grupo_41388" data-name="Grupo 41388" transform="translate(-1797 6616.108)">
      <text id="User_Pages" data-name="User Pages" transform="translate(1041 101.892)" fill="#25385a" font-size="9" font-family="Montserrat-Regular, Montserrat"><tspan x="0" y="0">Recolección</tspan></text>
      <path id="delivery-truck" d="M46.066,91.788l-2.293-5.4a.816.816,0,0,0-.764-.506h-4.98a.832.832,0,0,0-.831.831v4.822a.832.832,0,0,0,.831.831h7.655a.415.415,0,0,0,.382-.578ZM23.585,78H19.059v7.379h4.527ZM8,102.169V98.493H33.979v5.337H23.09a5.067,5.067,0,1,0-10.133,0h-3.3A1.664,1.664,0,0,1,8,102.169Zm0-5.005v-17.5A1.664,1.664,0,0,1,9.661,78H17.73v7.877a.832.832,0,0,0,.831.831h5.523a.832.832,0,0,0,.831-.831V78h7.4a1.664,1.664,0,0,1,1.661,1.661v17.5Zm33.921,4.8a1.869,1.869,0,1,0,1.869,1.869A1.868,1.868,0,0,0,41.921,101.961Zm0-1.869a3.738,3.738,0,1,1-3.738,3.738A3.738,3.738,0,0,1,41.921,100.092Zm-23.9,1.869a1.869,1.869,0,1,0,1.869,1.869A1.868,1.868,0,0,0,18.023,101.961Zm0-1.869a3.738,3.738,0,1,0,3.738,3.738A3.738,3.738,0,0,0,18.023,100.092ZM35.309,83.329h8.515a2.05,2.05,0,0,1,1.938,1.212L49.057,92.3a1.674,1.674,0,0,1,.141.686v9.6a1.248,1.248,0,0,1-1.246,1.246h-.964a5.067,5.067,0,1,0-10.133,0H35.309Z" transform="translate(1040 -19.106)" fill="#3e95f8" fill-rule="evenodd"/>
    </g>
  </g>
</svg>
