<svg xmlns="http://www.w3.org/2000/svg" xmlns:xlink="http://www.w3.org/1999/xlink" width="174" height="30" viewBox="0 0 174 30">
  <defs>
    <clipPath id="clip-path">
      <rect id="Rect치ngulo_24009" data-name="Rect치ngulo 24009" width="22.882" height="22.884" fill="#fff"/>
    </clipPath>
  </defs>
  <g id="ambiente" transform="translate(11358 -3408)">
    <rect id="Rect치ngulo_24010" data-name="Rect치ngulo 24010" width="174" height="30" rx="15" transform="translate(-11358 3408)" fill="#7dd189"/>
    <g id="Grupo_41044" data-name="Grupo 41044" transform="translate(0 0)">
      <text id="Label" transform="translate(-11335 3430)" fill="#fff" font-size="16" font-family="HelveticaNeue-Medium, Helvetica Neue" font-weight="500"><tspan x="0" y="0">T. AMBIENTE</tspan></text>
      <g id="Grupo_41043" data-name="Grupo 41043" transform="translate(-11218.382 3412)">
        <g id="Grupo_41037" data-name="Grupo 41037" clip-path="url(#clip-path)">
          <path id="Trazado_94929" data-name="Trazado 94929" d="M72.442,66.56a5.882,5.882,0,1,1-5.882,5.882,5.882,5.882,0,0,1,5.882-5.882" transform="translate(-61.001 -61.001)" fill="#fff"/>
          <path id="Trazado_94930" data-name="Trazado 94930" d="M122.8,4.913a1.294,1.294,0,0,1-1.292-1.292V1.292a1.292,1.292,0,1,1,2.584,0V3.621A1.294,1.294,0,0,1,122.8,4.913" transform="translate(-111.361)" fill="#fff"/>
          <path id="Trazado_94931" data-name="Trazado 94931" d="M38.925,40.216a1.283,1.283,0,0,1-.914-.378L36.365,38.19a1.292,1.292,0,0,1,1.826-1.826l1.646,1.647a1.292,1.292,0,0,1-.913,2.205Z" transform="translate(-33.014 -33.013)" fill="#fff"/>
          <path id="Trazado_94932" data-name="Trazado 94932" d="M1.292,124.094a1.292,1.292,0,1,1,0-2.584H3.621a1.292,1.292,0,1,1,0,2.584Z" transform="translate(0 -111.361)" fill="#fff"/>
          <path id="Trazado_94933" data-name="Trazado 94933" d="M36.9,191.969a1.292,1.292,0,0,1-.914-2.2l1.647-1.646a1.292,1.292,0,0,1,1.827,1.827l-1.648,1.645a1.285,1.285,0,0,1-.912.378" transform="translate(-32.634 -172.06)" fill="#fff"/>
          <path id="Trazado_94934" data-name="Trazado 94934" d="M122.8,220.055a1.293,1.293,0,0,1-1.292-1.291v-2.331a1.292,1.292,0,1,1,2.584,0v2.329a1.293,1.293,0,0,1-1.292,1.294" transform="translate(-111.361 -197.171)" fill="#fff"/>
          <path id="Trazado_94935" data-name="Trazado 94935" d="M190.677,191.951a1.284,1.284,0,0,1-.912-.378l-1.646-1.647a1.292,1.292,0,0,1,1.827-1.827l1.645,1.648a1.293,1.293,0,0,1-.914,2.206Z" transform="translate(-172.06 -172.042)" fill="#fff"/>
          <path id="Trazado_94936" data-name="Trazado 94936" d="M216.432,124.094a1.292,1.292,0,1,1,0-2.584h2.329a1.292,1.292,0,1,1,0,2.584Z" transform="translate(-197.171 -111.361)" fill="#fff"/>
          <path id="Trazado_94937" data-name="Trazado 94937" d="M189.019,39.406a1.292,1.292,0,0,1-.913-2.205l1.648-1.647a1.292,1.292,0,0,1,1.9,1.752q-.035.038-.074.074l-1.647,1.646A1.283,1.283,0,0,1,189.019,39.406Z" transform="translate(-172.048 -32.203)" fill="#fff"/>
        </g>
      </g>
    </g>
  </g>
</svg>
