<svg xmlns="http://www.w3.org/2000/svg" width="174" height="30" viewBox="0 0 174 30">
  <g id="congelada" transform="translate(11358 -3332)">
    <rect id="Rectángulo_24008" data-name="Rectángulo 24008" width="174" height="30" rx="15" transform="translate(-11358 3332)" fill="#2c84ce"/>
    <text id="Label" transform="translate(-11332 3352)" fill="#fff" font-size="16" font-family="HelveticaNeue-Medium, Helvetica Neue" font-weight="500"><tspan x="0" y="0">CONGELADA</tspan></text>
    <path id="Trazado_94938" data-name="Trazado 94938" d="M20.324,12.951a.816.816,0,0,1-.449,1.064l-2.269.922,2.1,1.262a.817.817,0,0,1-.81,1.418l-.031-.019-2.1-1.261.251,2.437a.817.817,0,0,1-1.625.167l-.376-3.655L11,12.875v4.681l2.94,2.2a.817.817,0,1,1-.98,1.307L11,19.6v2.45a.817.817,0,0,1-1.633,0V19.6l-1.96,1.47a.817.817,0,1,1-.98-1.307l2.94-2.2V12.875L5.357,15.286l-.376,3.655a.816.816,0,0,1-.811.733q-.042,0-.084,0a.816.816,0,0,1-.729-.894h0l.251-2.438L1.508,17.6a.817.817,0,1,1-.872-1.381L.667,16.2l2.1-1.262L.5,14.015A.817.817,0,0,1,1.112,12.5l3.4,1.384L8.6,11.432,4.516,8.978l-3.4,1.384A.817.817,0,0,1,.5,8.849l2.269-.922L.666,6.665a.817.817,0,0,1,.81-1.418l.031.019,2.1,1.261L3.356,4.089a.817.817,0,0,1,1.625-.167l.376,3.655L9.369,9.989V5.308L6.43,3.1A.817.817,0,1,1,7.409,1.8h0l1.96,1.47V.817A.817.817,0,0,1,11,.817v2.45l1.96-1.47a.817.817,0,0,1,.98,1.307L11,5.308V9.989l4.012-2.411.376-3.655a.816.816,0,0,1,1.624.167l-.251,2.438,2.1-1.262a.817.817,0,1,1,.873,1.381l-.031.019-2.1,1.262,2.269.922a.817.817,0,0,1-.615,1.513l-3.4-1.384-4.085,2.455,4.085,2.454,3.4-1.384a.816.816,0,0,1,1.063.447h0" transform="translate(-11213.968 3335.568)" fill="#fff"/>
  </g>
</svg>
