<svg xmlns="http://www.w3.org/2000/svg" width="174" height="30" viewBox="0 0 174 30">
  <g id="refrigerada" transform="translate(11358 -3370)">
    <g id="Grupo_41040" data-name="Grupo 41040" transform="translate(-12408 849)">
      <rect id="Rectángulo_24008" data-name="Rectángulo 24008" width="174" height="30" rx="15" transform="translate(1050 2521)" fill="#689df6"/>
      <text id="Label" transform="translate(1063 2541)" fill="#fff" font-size="16" font-family="HelveticaNeue-Medium, Helvetica Neue" font-weight="500"><tspan x="0" y="0">REFRIGERADA</tspan></text>
      <g id="wind" transform="translate(1186.837 2451.007)">
        <path id="Trazado_94923" data-name="Trazado 94923" d="M140.908,89.46a4.14,4.14,0,0,0-2.947,1.221.808.808,0,1,0,1.143,1.143,2.552,2.552,0,1,1,1.8,4.356H124.994a.808.808,0,0,0,0,1.616h15.914a4.168,4.168,0,0,0,0-8.336Z" transform="translate(-117.497 -13.688)" fill="#fff"/>
        <path id="Trazado_94924" data-name="Trazado 94924" d="M12.415,282.256H.808a.808.808,0,0,0,0,1.616H12.415a2.552,2.552,0,1,1-1.8,4.356.808.808,0,1,0-1.143,1.143,4.168,4.168,0,1,0,2.947-7.115Z" transform="translate(0 -196.099)" fill="#fff"/>
        <path id="Trazado_94925" data-name="Trazado 94925" d="M333.039,282.256H329.01a.808.808,0,1,0,0,1.616h4.029a1.452,1.452,0,1,1-1.027,2.478.808.808,0,1,0-1.142,1.143,3.068,3.068,0,1,0,2.169-5.237Z" transform="translate(-310.523 -196.099)" fill="#fff"/>
        <path id="Trazado_94926" data-name="Trazado 94926" d="M.808,147.781H14.187a.808.808,0,0,0,0-1.616H.808a.808.808,0,0,0,0,1.616Z" transform="translate(0 -67.338)" fill="#fff"/>
        <path id="Trazado_94927" data-name="Trazado 94927" d="M169.295,76.609h7.33a.808.808,0,1,0,0-1.616h-7.33a.808.808,0,1,0,0,1.616Z" transform="translate(-159.411)" fill="#fff"/>
        <path id="Trazado_94928" data-name="Trazado 94928" d="M47.133,214.21a.808.808,0,0,0,0,1.616H48.1a.808.808,0,0,0,0-1.616Z" transform="translate(-43.83 -131.718)" fill="#fff"/>
      </g>
    </g>
  </g>
</svg>
