<svg xmlns="http://www.w3.org/2000/svg" width="20.412" height="24.949" viewBox="0 0 20.412 24.949">
  <g id="trash" transform="translate(-801 -1455.026)">
    <g id="delete" transform="translate(798 1454.026)">
      <path id="Trazado_94786" data-name="Trazado 94786" d="M21.01,7a1.134,1.134,0,0,0-1.134,1.134v12.69A2.177,2.177,0,0,1,17.6,22.876H8.547a2.177,2.177,0,0,1-2.279-2.051V8.134A1.134,1.134,0,1,0,4,8.134v12.69a4.443,4.443,0,0,0,4.547,4.319H17.6a4.443,4.443,0,0,0,4.547-4.319V8.134A1.134,1.134,0,0,0,21.01,7Z" transform="translate(0.134 0.804)" fill="#fff"/>
      <path id="Trazado_94787" data-name="Trazado 94787" d="M22.278,4.4H17.742V2.134A1.134,1.134,0,0,0,16.608,1H9.8A1.134,1.134,0,0,0,8.67,2.134V4.4H4.134a1.134,1.134,0,1,0,0,2.268H22.278a1.134,1.134,0,0,0,0-2.268Zm-11.34,0V3.268h4.536V4.4Z" fill="#fff"/>
      <path id="Trazado_94788" data-name="Trazado 94788" d="M11.268,18.072V10.134a1.134,1.134,0,0,0-2.268,0v7.938a1.134,1.134,0,1,0,2.268,0Z" transform="translate(0.804 1.072)" fill="#fff"/>
      <path id="Trazado_94789" data-name="Trazado 94789" d="M15.268,18.072V10.134a1.134,1.134,0,1,0-2.268,0v7.938a1.134,1.134,0,1,0,2.268,0Z" transform="translate(1.34 1.072)" fill="#fff"/>
    </g>
  </g>
</svg>
