<svg xmlns="http://www.w3.org/2000/svg" width="23.784" height="23.784" viewBox="0 0 23.784 23.784">
  <path id="facebook_1_" data-name="facebook (1)" d="M22.472,0H1.312A1.313,1.313,0,0,0,0,1.313v21.16a1.313,1.313,0,0,0,1.313,1.312H12.705v-9.2H9.616v-3.6h3.089V8.337c0-3.072,1.876-4.745,4.617-4.745a25.415,25.415,0,0,1,2.77.142V6.945H18.2c-1.491,0-1.78.709-1.78,1.749v2.293h3.565l-.465,3.6h-3.1v9.2h6.05a1.313,1.313,0,0,0,1.313-1.312h0V1.312A1.313,1.313,0,0,0,22.472,0Zm0,0" transform="translate(0 0)" fill="#ebf1fa"/>
</svg>
