<svg xmlns="http://www.w3.org/2000/svg" width="23.784" height="23.784" viewBox="0 0 23.784 23.784">
  <path id="linkedin" d="M22.069,0H1.715A1.715,1.715,0,0,0,0,1.715V22.069a1.715,1.715,0,0,0,1.715,1.715H22.069a1.715,1.715,0,0,0,1.715-1.715V1.715A1.715,1.715,0,0,0,22.069,0ZM8.436,17.978H5.54V9.264h2.9Zm-1.448-9.9H6.97a1.51,1.51,0,1,1,.038-3.011,1.51,1.51,0,1,1-.019,3.011Zm11.892,9.9h-2.9V13.316c0-1.172-.419-1.97-1.467-1.97A1.585,1.585,0,0,0,13.031,12.4a1.983,1.983,0,0,0-.1.707v4.866h-2.9s.038-7.9,0-8.714h2.9V10.5a2.875,2.875,0,0,1,2.61-1.438c1.906,0,3.334,1.245,3.334,3.922Zm0,0" fill="#ebf1fa"/>
</svg>
