<svg id="youtube" xmlns="http://www.w3.org/2000/svg" width="23.784" height="23.784" viewBox="0 0 23.784 23.784">
  <path id="Trazado_19" data-name="Trazado 19" d="M224.113,212.5l3.868-2.228-3.868-2.228Zm0,0" transform="translate(-213.702 -198.375)" fill="#ebf1fa"/>
  <path id="Trazado_20" data-name="Trazado 20" d="M22.069,0H1.715A1.715,1.715,0,0,0,0,1.715V22.069a1.715,1.715,0,0,0,1.715,1.715H22.069a1.715,1.715,0,0,0,1.715-1.715V1.715A1.715,1.715,0,0,0,22.069,0ZM19.323,11.9a19.628,19.628,0,0,1-.306,3.575,1.862,1.862,0,0,1-1.31,1.31,45.2,45.2,0,0,1-5.815.306,43.582,43.582,0,0,1-5.815-.318,1.862,1.862,0,0,1-1.31-1.31,19.542,19.542,0,0,1-.306-3.575,19.615,19.615,0,0,1,.306-3.575A1.9,1.9,0,0,1,6.077,7a45.2,45.2,0,0,1,5.815-.306,43.49,43.49,0,0,1,5.815.318,1.862,1.862,0,0,1,1.31,1.31A18.626,18.626,0,0,1,19.323,11.9Zm0,0" fill="#ebf1fa"/>
</svg>
