<svg xmlns="http://www.w3.org/2000/svg" xmlns:xlink="http://www.w3.org/1999/xlink" width="34.809" height="34.809" viewBox="0 0 34.809 34.809">
  <defs>
    <clipPath id="clip-path">
      <rect id="Rectángulo_15" data-name="Rectángulo 15" width="34.809" height="34.809" fill="none"/>
    </clipPath>
  </defs>
  <g id="Grupo_33" data-name="Grupo 33" transform="translate(0 0)">
    <g id="Grupo_32" data-name="Grupo 32" transform="translate(0 0.001)" clip-path="url(#clip-path)">
      <path id="Trazado_69" data-name="Trazado 69" d="M24.234,34.81H10.576A10.577,10.577,0,0,1,0,24.234V10.576A10.577,10.577,0,0,1,10.576,0H24.234A10.577,10.577,0,0,1,34.81,10.576V24.234A10.577,10.577,0,0,1,24.234,34.81" transform="translate(0 -0.001)" fill="#2674fb"/>
      <path id="Trazado_70" data-name="Trazado 70" d="M22.529,9.8h-1.5a2.165,2.165,0,0,1-2.165-2.165v-1.5A2.164,2.164,0,0,0,16.7,3.973H11.965A2.165,2.165,0,0,0,9.8,6.138v1.5A2.165,2.165,0,0,1,7.635,9.8h-1.5a2.164,2.164,0,0,0-2.163,2.165V16.7a2.164,2.164,0,0,0,2.163,2.165h1.5A2.164,2.164,0,0,1,9.8,21.03v1.5a2.166,2.166,0,0,0,2.165,2.165H16.7a2.165,2.165,0,0,0,2.163-2.165v-1.5a2.164,2.164,0,0,1,2.165-2.163h1.5A2.166,2.166,0,0,0,24.694,16.7V11.964A2.166,2.166,0,0,0,22.529,9.8" transform="translate(3.072 3.07)" fill="#fff"/>
    </g>
  </g>
</svg>
