<svg id="location" xmlns="http://www.w3.org/2000/svg" width="26.577" height="35.437" viewBox="0 0 26.577 35.437">
  <path id="Shape" d="M13.288,35.437a.741.741,0,0,1-.506-.2A62.572,62.572,0,0,1,6.2,27.754a40.664,40.664,0,0,1-4.272-6.97A18.027,18.027,0,0,1,0,13.289a13.289,13.289,0,1,1,26.577,0,18.027,18.027,0,0,1-1.924,7.5,40.667,40.667,0,0,1-4.272,6.97,62.572,62.572,0,0,1-6.587,7.482A.738.738,0,0,1,13.288,35.437Zm0-29.539a7.387,7.387,0,1,0,7.387,7.387A7.4,7.4,0,0,0,13.284,5.9Z" fill="#fff"/>
</svg>
