<svg xmlns="http://www.w3.org/2000/svg" width="71.755" height="64" viewBox="0 0 71.755 64">
  <g id="enzyme" transform="translate(0.001 -27.668)">
    <path id="Trazado_90" data-name="Trazado 90" d="M323,338.02a1.121,1.121,0,0,0,1.121-1.121v-6.967a1.121,1.121,0,0,0-.561-.971l-6.033-3.484a1.121,1.121,0,1,0-1.121,1.942l5.473,3.16v6.32A1.121,1.121,0,0,0,323,338.02Z" transform="translate(-271.585 -255.943)"/>
    <path id="Trazado_91" data-name="Trazado 91" d="M182.305,67.376l8.837,5.1v6.7a1.121,1.121,0,1,0,2.242,0v-6.7l8.837-5.1a1.121,1.121,0,1,0-1.121-1.942l-8.837,5.1-8.837-5.1a1.121,1.121,0,1,0-1.121,1.942Z" transform="translate(-156.275 -32.344)"/>
    <path id="Trazado_92" data-name="Trazado 92" d="M254.832,220.762a1.121,1.121,0,0,0,2.242,0v-6.967a1.121,1.121,0,0,0-.561-.971l-6.033-3.484a1.121,1.121,0,1,0-1.121,1.942l5.473,3.16Z" transform="translate(-213.931 -156.082)"/>
    <path id="Trazado_93" data-name="Trazado 93" d="M104.586,197.9l-8.837,5.1-8.275-4.777v-10.2a1.121,1.121,0,0,0-.561-.971l-9.4-5.425a1.121,1.121,0,0,0-1.121,0L67,187.054a1.121,1.121,0,0,0-.561.971v10.2l-8.276,4.778-8.836-5.1a1.121,1.121,0,1,0-1.121,1.942l8.836,5.1v10.2a1.121,1.121,0,0,0,2.242,0v-10.2l8.276-4.778,8.276,4.778v1.676a1.121,1.121,0,0,0,2.242,0v-1.676l8.276-4.778,8.275,4.778v9.556l-8.276,4.778-8.276-4.778v-4.413a1.121,1.121,0,1,0-2.242,0v5.059a1.121,1.121,0,0,0,.561.971l9.4,5.426a1.121,1.121,0,0,0,1.121,0l9.4-5.426a1.121,1.121,0,0,0,.561-.971v-10.2l8.837-5.1a1.121,1.121,0,1,0-1.121-1.942Zm-35.907-9.233,8.276-4.778,8.276,4.778v9.557l-8.276,4.778-8.276-4.778Z" transform="translate(-40.966 -132.254)"/>
    <path id="Trazado_94" data-name="Trazado 94" d="M338.35,34.357a3.344,3.344,0,1,0-3.344-3.344,3.344,3.344,0,0,0,3.344,3.344Zm0-4.446a1.1,1.1,0,1,1-1.1,1.1,1.1,1.1,0,0,1,1.1-1.1Z" transform="translate(-288.057 0)"/>
    <path id="Trazado_95" data-name="Trazado 95" d="M138.018,34.357a3.344,3.344,0,1,0-3.344-3.344A3.344,3.344,0,0,0,138.018,34.357Zm0-4.446a1.1,1.1,0,1,1-1.1,1.1A1.1,1.1,0,0,1,138.018,29.91Z" transform="translate(-115.801 0)"/>
    <path id="Trazado_96" data-name="Trazado 96" d="M3.343,263.12a3.344,3.344,0,1,0,3.344,3.344,3.344,3.344,0,0,0-3.344-3.344Zm0,4.446a1.1,1.1,0,1,1,1.1-1.1,1.1,1.1,0,0,1-1.1,1.1Z" transform="translate(0 -202.454)"/>
    <path id="Trazado_97" data-name="Trazado 97" d="M467.618,263.12a3.344,3.344,0,1,0,3.344,3.344A3.344,3.344,0,0,0,467.618,263.12Zm0,4.446a1.1,1.1,0,1,1,1.1-1.1A1.1,1.1,0,0,1,467.618,267.566Z" transform="translate(-399.208 -202.454)"/>
    <path id="Trazado_98" data-name="Trazado 98" d="M99.453,436.606a3.344,3.344,0,1,0,3.344,3.344,3.344,3.344,0,0,0-3.344-3.344Zm0,4.446a1.1,1.1,0,1,1,1.1-1.1A1.1,1.1,0,0,1,99.453,441.052Z" transform="translate(-82.64 -351.627)"/>
  </g>
</svg>
