<svg xmlns="http://www.w3.org/2000/svg" xmlns:xlink="http://www.w3.org/1999/xlink" width="30.37" height="29.198" viewBox="0 0 30.37 29.198">
  <defs>
    <clipPath id="clip-path">
      <path id="Bounding_box" data-name="Bounding box" d="M0,0H30.37V29.2H0Z" fill="#d9d9d9" style="isolation: isolate"/>
    </clipPath>
  </defs>
  <g id="phone_in_talk" clip-path="url(#clip-path)" style="isolation: isolate">
    <path id="phone_in_talk-2" data-name="phone_in_talk" d="M17.668,4.912a8.723,8.723,0,0,0-6.28-2.479V0a11.4,11.4,0,0,1,4.445.867A11.611,11.611,0,0,1,19.44,3.209a11.119,11.119,0,0,1,2.436,3.467,10.243,10.243,0,0,1,.9,4.273H20.246A8.059,8.059,0,0,0,17.668,4.912ZM14.078,8.364A3.737,3.737,0,0,0,11.389,7.3V4.866a6.223,6.223,0,0,1,4.476,1.779,5.751,5.751,0,0,1,1.851,4.3H15.185A3.452,3.452,0,0,0,14.078,8.364Zm-.443,11.877a23.413,23.413,0,0,1-7.023-4.7A22.48,22.48,0,0,1,1.724,8.79,17.671,17.671,0,0,1,0,1.277,1.213,1.213,0,0,1,.38.365,1.315,1.315,0,0,1,1.329,0H6.454a1.2,1.2,0,0,1,.791.289,1.1,1.1,0,0,1,.411.684l.823,4.258a2.065,2.065,0,0,1-.032.821A1.269,1.269,0,0,1,8.1,6.63L5.03,9.611a14.679,14.679,0,0,0,1.5,2.175,21.721,21.721,0,0,0,1.914,2.023A22.019,22.019,0,0,0,10.5,15.557a20.073,20.073,0,0,0,2.278,1.475l2.974-2.859a1.788,1.788,0,0,1,.743-.411,2.116,2.116,0,0,1,.9-.076l4.366.852a1.472,1.472,0,0,1,.728.441,1.047,1.047,0,0,1,.285.715v4.927a1.213,1.213,0,0,1-.38.912,1.315,1.315,0,0,1-.949.365A19.638,19.638,0,0,1,13.635,20.241ZM5.916,5.292,5.378,2.433H2.562A24.125,24.125,0,0,0,3.005,4.9a12.967,12.967,0,0,0,.823,2.4ZM17.668,19.009a16.006,16.006,0,0,0,2.578.4V16.728l-2.974-.578-2.12,2.038A16.162,16.162,0,0,0,17.668,19.009Z" transform="translate(3.796 3.65)" fill="#fff" style="isolation: isolate"/>
  </g>
</svg>
