<svg id="Grupo_7" data-name="Grupo 7" xmlns="http://www.w3.org/2000/svg" width="57.651" height="57.651" viewBox="0 0 57.651 57.651">
  <path id="Trazado_8" data-name="Trazado 8" d="M28.908.083A28.825,28.825,0,1,1,.083,28.912,28.824,28.824,0,0,1,28.908.083Z" transform="translate(-0.083 -0.083)" fill="#2674fb" fill-rule="evenodd"/>
  <path id="Trazado_9" data-name="Trazado 9" d="M116.632,104.675a6.881,6.881,0,0,1,6.882,6.883.88.88,0,1,0,1.759,0,8.644,8.644,0,0,0-8.641-8.64.879.879,0,1,0,0,1.758ZM115.3,110.3a.879.879,0,1,1,0-1.758,4.513,4.513,0,0,1,4.515,4.514.88.88,0,1,1-1.759,0A2.755,2.755,0,0,0,115.3,110.3Zm5.723,21.748a23.5,23.5,0,0,1-7.914-3.227,43.622,43.622,0,0,1-13.747-13.748,23.476,23.476,0,0,1-3.227-7.913,3.905,3.905,0,0,1,.1-1.866,3.946,3.946,0,0,1,.983-1.583l3.665-3.664a.916.916,0,0,1,1.291,0l6.584,6.582a.919.919,0,0,1,0,1.292l-3.5,3.5a1.478,1.478,0,0,0-.159,1.91,45.231,45.231,0,0,0,9.75,9.75,1.474,1.474,0,0,0,1.909-.158l3.5-3.5a.9.9,0,0,1,.644-.266.916.916,0,0,1,.647.266l6.583,6.583a.918.918,0,0,1,0,1.292l-3.665,3.664A3.785,3.785,0,0,1,121.027,132.05Zm-4.395-34.209a.879.879,0,0,1,0-1.757A15.472,15.472,0,0,1,132.1,111.558a.88.88,0,1,1-1.759,0,13.715,13.715,0,0,0-13.714-13.716Z" transform="translate(-85.263 -85.274)" fill="#fff" fill-rule="evenodd"/>
</svg>
