<svg id="Grupo_5" data-name="Grupo 5" xmlns="http://www.w3.org/2000/svg" width="60.594" height="60.389" viewBox="0 0 60.594 60.389">
  <ellipse id="Elipse_1" data-name="Elipse 1" cx="30.297" cy="30.194" rx="30.297" ry="30.194" transform="translate(0 0)" fill="#2674fb"/>
  <g id="time-left" transform="translate(11.76 11.715)">
    <g id="Layer_2_16_" transform="translate(0 0)">
      <g id="Grupo_4" data-name="Grupo 4">
        <path id="Trazado_11" data-name="Trazado 11" d="M254.82,423.2c-.307.076-.62.144-.93.2a1.5,1.5,0,0,0,.545,2.941c.37-.069.742-.149,1.108-.241a1.5,1.5,0,0,0-.723-2.9Z" transform="translate(-232.462 -389.451)" fill="#fff"/>
        <path id="Trazado_12" data-name="Trazado 12" d="M412.894,139.156a1.5,1.5,0,0,0,2.839-.94c-.118-.357-.249-.716-.389-1.065a1.5,1.5,0,1,0-2.777,1.11C412.684,138.555,412.794,138.856,412.894,139.156Z" transform="translate(-379.476 -125.452)" fill="#fff"/>
        <path id="Trazado_13" data-name="Trazado 13" d="M322.425,394.159c-.264.174-.536.343-.81.5a1.5,1.5,0,1,0,1.495,2.591c.326-.188.65-.388.965-.6a1.5,1.5,0,0,0-1.649-2.5Z" transform="translate(-295.207 -362.546)" fill="#fff"/>
        <path id="Trazado_14" data-name="Trazado 14" d="M430.624,208.748a1.5,1.5,0,1,0-2.989.117c.012.315.016.636.008.951a1.5,1.5,0,1,0,2.99.066C430.642,209.506,430.639,209.125,430.624,208.748Z" transform="translate(-393.437 -190.868)" fill="#fff"/>
        <path id="Trazado_15" data-name="Trazado 15" d="M379.8,344.368a1.5,1.5,0,0,0-2.094.3c-.19.253-.39.5-.595.744a1.5,1.5,0,0,0,.169,2.108c.036.03.072.058.11.085a1.5,1.5,0,0,0,2-.254c.244-.287.483-.586.71-.888A1.5,1.5,0,0,0,379.8,344.368Z" transform="translate(-346.627 -316.689)" fill="#fff"/>
        <path id="Trazado_16" data-name="Trazado 16" d="M416.037,279.421a1.5,1.5,0,0,0-1.874.98c-.095.3-.2.6-.312.9a1.5,1.5,0,0,0,2.795,1.065c.134-.352.259-.712.372-1.07A1.5,1.5,0,0,0,416.037,279.421Z" transform="translate(-380.664 -257.147)" fill="#fff"/>
        <path id="Trazado_17" data-name="Trazado 17" d="M15.834,35.652A15.442,15.442,0,0,1,12,34.433c-.014-.008-.027-.016-.042-.023-.287-.135-.573-.279-.85-.43l0,0a15.954,15.954,0,0,1-1.488-.93A15.606,15.606,0,0,1,9.679,7.485l.054-.037a15.633,15.633,0,0,1,17.52-.141L26.084,9c-.325.47-.125.812.444.761L31.6,9.3a.836.836,0,0,0,.757-1.094L31,3.3c-.153-.551-.543-.616-.868-.147L28.958,4.844A18.469,18.469,0,0,0,15.424,1.966q-.718.124-1.416.3L14,2.27l-.054.015A18.441,18.441,0,0,0,3.719,9.138c-.022.026-.044.05-.064.078-.085.114-.169.231-.252.348-.135.192-.268.388-.395.584-.016.024-.028.048-.042.072A18.438,18.438,0,0,0,.02,21.1c0,.013,0,.025,0,.038.017.375.047.755.087,1.13,0,.024.008.047.012.071.042.376.094.754.16,1.131a18.457,18.457,0,0,0,5.2,10.009l.019.02.007.006a18.843,18.843,0,0,0,2.383,1.991,18.44,18.44,0,0,0,7.415,3.1,1.5,1.5,0,0,0,.528-2.944Z" transform="translate(0 -1.688)" fill="#fff"/>
        <path id="Trazado_18" data-name="Trazado 18" d="M207.2,83.2a1.21,1.21,0,0,0-1.21,1.21V96.463l11.025,5.7a1.21,1.21,0,0,0,1.111-2.149l-9.717-5.023V84.408A1.21,1.21,0,0,0,207.2,83.2Z" transform="translate(-189.514 -76.68)" fill="#fff"/>
      </g>
    </g>
  </g>
</svg>
