<svg xmlns="http://www.w3.org/2000/svg" width="69" height="69" viewBox="0 0 69 69">
  <g id="borrar-CRUD" transform="translate(-169 -1499)">
    <rect id="Rectángulo_24110" data-name="Rectángulo 24110" width="69" height="69" transform="translate(169 1499)" fill="none"/>
    <g id="Grupo_41357" data-name="Grupo 41357" transform="translate(6794.043 2226.816)">
      <g id="trash-can" transform="translate(-6599.429 -717.816)">
        <g id="Grupo_40175" data-name="Grupo 40175" transform="translate(0)">
          <g id="Grupo_40174" data-name="Grupo 40174" transform="translate(0)">
            <path id="Trazado_94751" data-name="Trazado 94751" d="M50.592,2.9H46.278l-.472-1.414A2.174,2.174,0,0,0,43.741,0H40.028a2.176,2.176,0,0,0-2.066,1.488L37.491,2.9H33.177A2.179,2.179,0,0,0,31,5.079V6.531c0,.808.728.726,1.508.726H52.043a.725.725,0,0,0,.726-.726V5.079A2.179,2.179,0,0,0,50.592,2.9Zm-11.571,0,.318-.955a.725.725,0,0,1,.689-.5h3.713a.724.724,0,0,1,.688.5l.318.955Z" transform="translate(-31)" fill="#25385a"/>
          </g>
        </g>
        <g id="Grupo_40177" data-name="Grupo 40177" transform="translate(1.629 8.804)">
          <g id="Grupo_40176" data-name="Grupo 40176" transform="translate(0)">
            <path id="Trazado_94752" data-name="Trazado 94752" d="M64.666,182l1.157,13.984a2.166,2.166,0,0,0,2.168,1.98H79.853a2.168,2.168,0,0,0,2.168-1.986L83.178,182Zm5.628,12.336a.726.726,0,0,1-1.451,0V184.177a.726.726,0,0,1,1.451,0Zm4.354,0a.726.726,0,0,1-1.451,0V184.177a.726.726,0,0,1,1.451,0Zm4.354,0a.726.726,0,0,1-1.451,0V184.177a.726.726,0,0,1,1.451,0Z" transform="translate(-64.666 -182)" fill="#25385a"/>
          </g>
        </g>
      </g>
      <text id="Borrar" transform="translate(-6611.043 -671.349)" fill="#25385a" font-size="13" font-family="Montserrat-Regular, Montserrat"><tspan x="0" y="0">Borrar</tspan></text>
    </g>
  </g>
</svg>
