<svg xmlns="http://www.w3.org/2000/svg" width="62" height="60.033" viewBox="0 0 62 60.033">
  <g id="NOTIFICACION" transform="translate(-310 -1415.967)">
    <g id="Grupo_41372" data-name="Grupo 41372">
      <g id="notification" transform="translate(311.051 1415.967)">
        <g id="Grupo_41295" data-name="Grupo 41295" transform="translate(17.95 0)">
          <path id="Trazado_94983" data-name="Trazado 94983" d="M42.806,20.57a3.189,3.189,0,0,0-3.189-2.807.349.349,0,0,1-.351-.351V12.181a9.155,9.155,0,0,0-5.911-8.54,3.107,3.107,0,0,0,.062-.608,3.033,3.033,0,0,0-6.066,0,3.247,3.247,0,0,0,.058.591A8.875,8.875,0,0,0,21.5,11.99v5.422a.352.352,0,0,1-.351.351,3.186,3.186,0,0,0-3.189,2.807,3.11,3.11,0,0,0,3.1,3.411h5.356a3.995,3.995,0,0,0,7.94,0h5.356a3.11,3.11,0,0,0,3.1-3.411ZM30.385,1.776a1.258,1.258,0,0,1,1.257,1.257,1.086,1.086,0,0,1-.018.169,7.87,7.87,0,0,0-.915-.084,9.151,9.151,0,0,0-1.563.089,1.086,1.086,0,0,1-.018-.169,1.26,1.26,0,0,1,1.257-1.261Zm0,23.98a2.228,2.228,0,0,1-2.176-1.776h4.352A2.228,2.228,0,0,1,30.385,25.757ZM40.7,21.769a1.322,1.322,0,0,1-.986.435H21.059a1.322,1.322,0,0,1-.986-.435,1.3,1.3,0,0,1-.338-1.03,1.4,1.4,0,0,1,1.421-1.2,2.13,2.13,0,0,0,2.127-2.127V11.99a7.108,7.108,0,0,1,7.1-7.105c.089,0,.173,0,.262,0a7.266,7.266,0,0,1,6.843,7.292v5.231a2.13,2.13,0,0,0,2.127,2.127,1.4,1.4,0,0,1,1.421,1.2A1.329,1.329,0,0,1,40.7,21.769Z" transform="translate(-17.95 0)" fill="#25385a"/>
          <path id="Trazado_94984" data-name="Trazado 94984" d="M19.407,51.934a.887.887,0,0,0,.866-.7A10.381,10.381,0,0,1,23.1,46.1a.889.889,0,0,0-1.257-1.257,12.151,12.151,0,0,0-3.3,6.017.883.883,0,0,0,.675,1.057A1.028,1.028,0,0,0,19.407,51.934Z" transform="translate(-18.474 -41.276)" fill="#25385a"/>
          <path id="Trazado_94985" data-name="Trazado 94985" d="M291.355,51.878a.937.937,0,0,0,.191-.022.885.885,0,0,0,.675-1.057,12.171,12.171,0,0,0-3.3-6.017.889.889,0,0,0-1.257,1.257,10.416,10.416,0,0,1,2.824,5.138A.9.9,0,0,0,291.355,51.878Z" transform="translate(-267.417 -41.22)" fill="#25385a"/>
        </g>
      </g>
      <text id="Generar_Notificación" data-name="Generar
Notificación" transform="translate(341 1460)" fill="#25385a" font-size="10" font-family="Montserrat-Regular, Montserrat"><tspan x="-20" y="0">Generar</tspan><tspan x="-30" y="13">Notificación</tspan></text>
    </g>
  </g>
</svg>
