<svg xmlns="http://www.w3.org/2000/svg" width="69" height="69" viewBox="0 0 69 69">
  <g id="pdf" transform="translate(-494 -1409)">
    <g id="Grupo_41373" data-name="Grupo 41373" transform="translate(-80 -12.928)">
      <g id="pdf-2" data-name="pdf" transform="translate(591 1427.928)">
        <path id="Trazado_94804" data-name="Trazado 94804" d="M29.267,269.393H27.983a3.209,3.209,0,0,1-3.209-3.209,1.925,1.925,0,0,1,1.925-1.925h2.567v5.134Z" transform="translate(-24.774 -243.721)" fill="#bd4150"/>
        <path id="Trazado_94805" data-name="Trazado 94805" d="M106.741,0H82.994l-.661,1.284V39.171h30.184l1.284-.662V7.06Z" transform="translate(-77.86 0)" fill="#eceaec"/>
        <path id="Trazado_94806" data-name="Trazado 94806" d="M75.607,36.583V0a1.284,1.284,0,0,0-1.284,1.284V38.509a1.284,1.284,0,0,0,1.284,1.284H105.13a1.284,1.284,0,0,0,1.284-1.284H77.532a1.925,1.925,0,0,1-1.925-1.925Z" transform="translate(-70.472 0)" fill="#dad8db"/>
        <path id="Trazado_94807" data-name="Trazado 94807" d="M403.447,6.95a1.284,1.284,0,0,0-.376-.908L397.4.376A1.284,1.284,0,0,0,396.5,0h-.11V6.418a.642.642,0,0,0,.642.642h6.418Z" transform="translate(-367.505 0)" fill="#dad8db"/>
        <path id="Trazado_94808" data-name="Trazado 94808" d="M54.489,312.506h-19.9a1.922,1.922,0,0,1-.642-.11l-.618,1.031v8.109a1.925,1.925,0,0,0,1.925,1.925H54.489l1.284-.687v-8.985A1.284,1.284,0,0,0,54.489,312.506Z" transform="translate(-32.668 -288.117)" fill="#e15f78"/>
        <path id="Trazado_94809" data-name="Trazado 94809" d="M26.058,290.848a1.931,1.931,0,0,1-1.284-1.816v11.553A1.925,1.925,0,0,0,26.7,302.51H46.6a1.284,1.284,0,0,0,1.284-1.284h-19.9a1.925,1.925,0,0,1-1.925-1.925Z" transform="translate(-24.774 -266.569)" fill="#db4655"/>
        <g id="Grupo_40579" data-name="Grupo 40579" transform="translate(4.474 26.956)">
          <path id="Trazado_94810" data-name="Trazado 94810" d="M230.269,349.581h-1.26v-1.217h1.424a.642.642,0,0,0,0-1.284h-2.066a.642.642,0,0,0-.642.642v5.1a.642.642,0,1,0,1.284,0v-1.955h1.26a.642.642,0,0,0,0-1.284Z" transform="translate(-216.427 -347.062)" fill="#fff"/>
          <path id="Trazado_94811" data-name="Trazado 94811" d="M84.41,346.839H82.98a.641.641,0,0,0-.641.642h0v5.135a.642.642,0,1,0,1.284,0v-1.592l.788,0a2.091,2.091,0,1,0,0-4.182Zm0,2.9-.782,0c0-.3,0-1.617,0-1.617h.786a.808.808,0,1,1,0,1.614Z" transform="translate(-82.338 -346.839)" fill="#fff"/>
          <path id="Trazado_94812" data-name="Trazado 94812" d="M153.884,347.815h-1.411a.641.641,0,0,0-.642.643l0,2.484c0,.693.006,2.5.006,2.5a.642.642,0,0,0,.642.64h0s1.046,0,1.451-.011a2.832,2.832,0,0,0,2.6-3.122C156.538,349.074,155.471,347.815,153.884,347.815Zm.03,4.972c-.184,0-.5.006-.791.008,0-.588,0-1.428,0-1.852l0-1.844h.768c1.3,0,1.371,1.541,1.371,1.85C155.254,351.852,154.84,352.771,153.914,352.787Z" transform="translate(-146.43 -347.739)" fill="#fff"/>
        </g>
        <path id="Trazado_94813" data-name="Trazado 94813" d="M179.7,92.162a1.487,1.487,0,0,1-1.257-.744,1.715,1.715,0,0,1,.337-2.242,9.889,9.889,0,0,1,3.784-1.922,33.006,33.006,0,0,0,1.567-3.446c.3-.761.536-1.446.728-2.06a7.436,7.436,0,0,1-1.215-3.93,1.64,1.64,0,0,1,1.9-1.428c.313.017,1.061.181,1.242,1.332a10.451,10.451,0,0,1-.559,3.92,24.41,24.41,0,0,0,3.267,4.295,8.019,8.019,0,0,1,4.056.48,1.286,1.286,0,0,1,.625,1.566,1.715,1.715,0,0,1-2.157,1.244,7.437,7.437,0,0,1-3-1.987,29.9,29.9,0,0,0-5.558,1.031c-1.067,1.916-2.221,3.407-3.19,3.778A1.6,1.6,0,0,1,179.7,92.162Zm-.18-1.441c.107.165.166.161.194.158.409-.042,1.089-.747,1.866-1.94a8.687,8.687,0,0,0-1.362.715C179.242,90.3,179.448,90.616,179.515,90.72Zm11.307-3.564a4.18,4.18,0,0,0,1.484.821c.333.077.5.038.646-.394C192.763,87.3,191.957,87.16,190.822,87.157Zm-5.1-3.957a35,35,0,0,1-1.488,3.578,31.211,31.211,0,0,1,3.682-.691A25.425,25.425,0,0,1,185.725,83.2Zm-.309-5.551c-.456,0-.479.171-.506.351a4.023,4.023,0,0,0,.429,1.926c.29-1.386.231-2.118.09-2.277h-.013Z" transform="translate(-166.238 -70.45)" fill="#e15f78"/>
      </g>
      <text id="Descargar" transform="translate(578 1482.5)" fill="#25385a" font-size="12" font-family="Montserrat-Regular, Montserrat"><tspan x="0" y="0">Descargar</tspan></text>
    </g>
    <rect id="Rectángulo_24109" data-name="Rectángulo 24109" width="69" height="69" transform="translate(494 1409)" fill="none"/>
  </g>
</svg>
