<svg xmlns="http://www.w3.org/2000/svg" xmlns:xlink="http://www.w3.org/1999/xlink" width="224.021" height="29.789" viewBox="0 0 224.021 29.789">
  <defs>
    <clipPath id="clip-path">
      <rect id="Rectángulo_23939" data-name="Rectángulo 23939" width="26.274" height="29.789" transform="translate(0 0)" fill="none"/>
    </clipPath>
  </defs>
  <g id="logo-client-lab" transform="translate(-1747.331 -6)">
    <g id="Grupo_40935" data-name="Grupo 40935" transform="translate(1738 6)">
      <text id="Laboratorio_S.A_de_C.V" data-name="Laboratorio S.A de C.V" transform="translate(193.331 20)" fill="#25385a" font-size="16" font-family="Montserrat-SemiBold, Montserrat" font-weight="600" style="isolation: isolate"><tspan x="-183.184" y="0">Laboratorio S.A de C.V</tspan></text>
      <g id="Grupo_40486" data-name="Grupo 40486" transform="translate(207.077)">
        <g id="Grupo_40485" data-name="Grupo 40485" transform="translate(0 0)" clip-path="url(#clip-path)">
          <path id="Trazado_94759" data-name="Trazado 94759" d="M23.179,26.584c-.014-.035-.078-.862-.092-.978-.015-.131-.085-.559-.093-.6s-.058-.3-.074-.411a.689.689,0,0,0-.025-.137c-.05-.143-.08-.293-.116-.44a1.263,1.263,0,0,0-.043-.2c-.041-.1-.065-.2-.1-.3-.055-.145-.1-.293-.154-.438-.043-.119-.243-.627-.3-.762l0-.009v0h0a.971.971,0,0,0-1.81.7,5.547,5.547,0,0,0,.195.52c.014.037.03.074.04.112s.075.193.1.262c.032.111.158.487.166.519.016.063.1.43.131.547.014.051.023.1.033.154.031.168.062.335.091.5.023.13.021.263.043.394a4.857,4.857,0,0,1,.047.563c.009.181,0,.364,0,.545,0,.148.006.295-.009.442-.011.107-.015.215-.024.322-.015.175-.036.349-.058.523-.017.136-.037.27-.065.4-.045.22-.085.441-.147.656-.048.168-.094.337-.145.5-.077.249-.171.492-.266.735-.05.128-.112.252-.169.378-.093.21-.2.414-.313.614s-.235.409-.364.606-.278.4-.424.6a7.7,7.7,0,0,1-.642.749c-.2.2-.4.405-.611.594a9.6,9.6,0,0,1-.97.754c-.142.1-.289.189-.437.277-.187.11-.375.219-.568.32-.222.116-.452.215-.683.314-.2.087-.411.159-.617.238-.17.066-.348.108-.523.163a5.758,5.758,0,0,1-.623.149c-.152.029-.305.053-.456.082-.167.033-.337.035-.5.069-.1.02-.2.012-.307.025a3.572,3.572,0,0,1-.433.024c-.257,0-.515.012-.774-.007-.189-.014-.376-.029-.565-.047-.164-.016-.326-.041-.488-.065-.225-.034-.447-.083-.668-.136s-.46-.119-.686-.189q-.311-.1-.613-.217A9.275,9.275,0,0,1,7,35.518c-.231-.129-.458-.266-.68-.41a10.47,10.47,0,0,1-1.357-1.07,8.033,8.033,0,0,1-.567-.59,9.983,9.983,0,0,1-1.05-1.417c-.088-.142-.167-.29-.249-.436-.112-.2-.211-.408-.3-.619-.1-.237-.2-.476-.286-.721-.041-.121-.085-.241-.124-.363-.03-.1-.046-.2-.078-.3s-.064-.222-.095-.333c-.02-.071-.02-.147-.044-.215a1.038,1.038,0,0,1-.044-.195c-.016-.1-.042-.207-.052-.314s-.03-.187-.043-.281-.013-.165-.028-.245a2.763,2.763,0,0,1-.03-.307,2.423,2.423,0,0,1-.008-.3c0-.086,0-.174-.006-.26,0-.241,0-.481.011-.722,0-.077.015-.154.022-.23s.021-.158.028-.235c0-.057,0-.12.013-.177.026-.163.046-.328.077-.49q.042-.218.092-.435c.029-.125.066-.25.1-.374s.063-.232.1-.347a7.137,7.137,0,0,1,.31-.843c.1-.232.2-.463.322-.688a9.915,9.915,0,0,1,.806-1.289,10.985,10.985,0,0,1,.784-.935c.176-.189.367-.364.561-.536a9.608,9.608,0,0,1,2.788-1.735c.127-.052.257-.1.384-.146.171-.065.348-.118.523-.172.21-.066.427-.109.642-.158.16-.036.322-.067.484-.095.209-.036.42-.059.631-.085.085-.01.17,0,.252-.012.119-.018.239-.022.359-.031s.764,0,1-.015l.014,0a.973.973,0,0,0,.02-1.946v0h-.022l-1.167.014a4.525,4.525,0,0,0-.476.027c-.192.018-.385.041-.577.063-.117.014-.237.027-.351.048-.176.033-.352.063-.527.1-.213.049-.424.1-.634.157-.271.072-.537.159-.8.251-.235.082-.467.169-.694.269-.255.112-.511.222-.756.355-.315.17-.63.34-.931.535-.1.062-.185.133-.281.193-.12.074-.23.164-.345.244-.207.144-.4.3-.6.461-.13.1-.253.215-.375.327-.18.165-.346.346-.521.518-.059.058-.122.115-.175.176-.088.1-.18.2-.265.3-.113.139-.227.276-.337.416s-.224.291-.329.441c-.188.27-.373.543-.535.83-.13.232-.259.466-.378.7A12.213,12.213,0,0,0,.686,23.1c-.095.259-.177.523-.256.787-.055.182-.089.37-.138.553-.058.218-.095.441-.137.662-.028.146-.039.3-.061.444s-.035.289-.048.434c-.018.191-.037.381-.036.574A.016.016,0,0,1,0,26.572v.937c.021.015.012.036.011.054,0,.157.017.313.026.469a4.285,4.285,0,0,0,.048.474c.036.21.057.423.1.632.024.115.04.235.065.35.049.221.11.44.17.659s.126.46.209.684c.052.14.106.279.157.42.081.224.18.44.278.657.083.181.17.361.266.535.115.211.237.419.355.628.083.146.185.278.271.422s.189.278.287.412c.166.228.344.448.529.661.129.148.255.3.39.44.158.167.322.329.488.489.1.1.207.181.309.273.2.177.408.335.611.5.066.055.144.1.209.152a2.47,2.47,0,0,0,.26.184c.106.07.208.146.319.21.129.074.252.161.381.234.235.134.473.263.715.384.292.145.59.275.893.4s.628.231.95.326c.26.077.523.142.788.2.243.057.488.1.735.137.2.031.4.053.6.076.308.035.618.044.927.057h.4c.16,0,.32,0,.479-.013s.307-.03.46-.042c.133-.011.266-.024.4-.041.2-.027.405-.059.607-.095.17-.03.339-.066.507-.1A11.445,11.445,0,0,0,17.345,37.1c.185-.106.367-.217.545-.334a11.708,11.708,0,0,0,1.568-1.218c.131-.121.261-.244.384-.373.2-.211.4-.422.591-.645.248-.3.484-.6.7-.92.092-.134.178-.272.267-.408.167-.256.315-.524.457-.794q.248-.469.449-.958c.1-.247.2-.5.277-.752.063-.2.127-.393.18-.594.067-.253.127-.507.177-.764.041-.209.074-.42.113-.629.028-.151.033-.306.053-.458s.024-.3.043-.446a1.489,1.489,0,0,0,0-.2c0-.037.024-1.028.024-1.028" transform="translate(0 -8.841)" fill="#049dbf"/>
          <path id="Trazado_94760" data-name="Trazado 94760" d="M18.02,22.425c-.087.14-.176.279-.253.425-.11.205-.23.406-.326.618-.068.15-.138.3-.2.449-.047.112-.089.225-.129.34q-.083.244-.143.494a5.892,5.892,0,0,0-.11.586c-.024.181-.047.363-.055.544-.023.508-.025,1.015,0,1.523,0,.081.011.163.022.243.015.108.015.216.035.324s.017.2.041.293c.015.057-.015.063-.047.07-.153.029-.3.08-.449.12s-.287.088-.429.134c-.18.058-.355.127-.53.2-.151.059-.3.129-.445.2-.236.11-.475.211-.7.341-.151.087-.307.166-.456.255-.263.158-.512.338-.764.514a6.782,6.782,0,0,0-.691.63,6.689,6.689,0,0,0-.882,1.163c-.129.187-.247.382-.368.574-.1.159-.2.316-.294.479s-.185.319-.271.483a3.457,3.457,0,0,0-.253.52.918.918,0,0,0,.043.78.7.7,0,0,0,.547.372.836.836,0,0,0,.566-.142,1.377,1.377,0,0,0,.4-.443c.239-.383.476-.767.715-1.15.1-.157.2-.311.3-.467.014.008.023.012.031.018.266.2.538.388.8.589.34.26.673.531,1.027.774a1.281,1.281,0,0,0,.335.186.708.708,0,0,0,.678-.1.662.662,0,0,0,.268-.624.723.723,0,0,0-.319-.529c-.086-.06-.174-.115-.258-.178-.391-.3-.77-.606-1.152-.912-.179-.143-.345-.3-.532-.438a5.2,5.2,0,0,1,1.238-.841q.232-.116.466-.228c.276-.131.557-.247.843-.351.208-.076.421-.139.634-.2.073-.021.148-.035.226-.053.024.107.028.21.041.311.024.186.041.372.053.559a6.192,6.192,0,0,1,.005.655c-.007.184-.014.368-.023.552s-.03.385-.049.578a4.26,4.26,0,0,1-.071.448c-.035.172-.083.343-.135.511a1.09,1.09,0,0,1-.09.26c-.226.361-.45.723-.682,1.081-.147.227-.3.451-.466.666-.1.129-.187.266-.281.4a8.154,8.154,0,0,0-.594.872.889.889,0,0,0-.109.562.8.8,0,0,0,.15.37.68.68,0,0,0,.429.278.882.882,0,0,0,.633-.122,1.433,1.433,0,0,0,.334-.3c.185-.214.358-.438.532-.663.254-.33.493-.67.727-1.014.117-.172.226-.351.346-.521a3.942,3.942,0,0,0,.345-.606c.085-.183.145-.375.228-.559a4,4,0,0,0,.23-.791,7.061,7.061,0,0,0,.137-.8c.012-.112.024-.225.037-.336.021-.173.033-.346.042-.519a9.85,9.85,0,0,0-.011-1.412c-.008-.089-.02-.177-.025-.267s-.022-.177-.033-.265-.014-.151-.029-.224c-.02-.1-.02-.1.067-.124a3.563,3.563,0,0,1,.375-.107,3.166,3.166,0,0,0,.39-.118c.221-.067.436-.154.65-.241.179-.073.355-.151.531-.23.21-.094.414-.2.616-.307a5.46,5.46,0,0,0,.988-.681,8.523,8.523,0,0,0,1.175-1.289c.467-.611.882-1.257,1.287-1.91.106-.171.209-.345.31-.52a2.378,2.378,0,0,0,.318-.674A1.058,1.058,0,0,0,25.6,23a.7.7,0,0,0-.133-.34.4.4,0,0,0-.315-.151.076.076,0,0,1-.03,0,.708.708,0,0,0-.318.011.167.167,0,0,0-.057.009.651.651,0,0,0-.258.164c-.067.082-.154.142-.223.223a4.665,4.665,0,0,0-.356.52c-.068.109-.144.213-.209.325-.083.14-.19.263-.275.4-.107.178-.231.346-.35.517-.095.136-.185.275-.291.4a.165.165,0,0,1-.023-.009l-.966-.588c-.293-.179-.576-.374-.883-.528a.75.75,0,0,0-.573-.042.768.768,0,0,0-.521.753.752.752,0,0,0,.169.446,1.594,1.594,0,0,0,.385.309c.409.266.821.527,1.209.823.042.032.082.065.127.1a4.514,4.514,0,0,1-.679.556,7.541,7.541,0,0,1-.721.4c-.137.066-.277.123-.417.182-.2.083-.4.164-.6.237-.143.052-.29.094-.437.136a1.294,1.294,0,0,1-.293.067,3.581,3.581,0,0,1-.066-.452,5.26,5.26,0,0,1-.028-.557,11.1,11.1,0,0,1,.028-1.144,4.678,4.678,0,0,1,.064-.478,4.494,4.494,0,0,1,.132-.513c.06-.185.134-.364.206-.543.043-.108.089-.216.142-.321.165-.328.336-.651.53-.963.2-.328.412-.653.626-.975.187-.281.373-.562.567-.839a2.467,2.467,0,0,0,.329-.58,1.116,1.116,0,0,0,.094-.33.882.882,0,0,0-.192-.559.4.4,0,0,0-.3-.151.988.988,0,0,0-.366.049.547.547,0,0,0-.263.135.281.281,0,0,1-.079.061.585.585,0,0,0-.177.138,5.035,5.035,0,0,0-.366.457c-.29.393-.579.787-.854,1.192-.2.289-.388.579-.572.876" transform="translate(-5.867 -11.168)" fill="#bbc441"/>
          <path id="Trazado_94761" data-name="Trazado 94761" d="M40.909,10.677a.822.822,0,0,1-.69-1.268L42.165,6.4a.822.822,0,0,1,.929-.34c1.267.386,1.861.192,1.916.1.164-.266-.585-1.789-2.918-3.226A8.976,8.976,0,0,0,39.066,1.7c-.838-.14-1.142.038-1.168.079-.058.095.044.743,1.023,1.741a.821.821,0,0,1,.1,1.021l-1.88,2.912a.822.822,0,0,1-1.381-.892L37.3,4.176c-1.036-1.239-1.331-2.407-.8-3.264C36.773.468,37.5-.231,39.336.074a10.5,10.5,0,0,1,3.618,1.457c2.463,1.517,4.441,3.89,3.456,5.488-.515.836-1.66,1.105-3.187.768L41.6,10.3a.821.821,0,0,1-.691.376" transform="translate(-20.394 0)" fill="#049dbf"/>
          <path id="Trazado_94762" data-name="Trazado 94762" d="M25.564,27.648c.015.108.015.216.035.324s.017.2.041.293c.009.033,0,.048-.012.057l1.674-.4a3.746,3.746,0,0,1-.066-.452,5.259,5.259,0,0,1-.028-.557,11.224,11.224,0,0,1,.028-1.144c.015-.16.033-.32.064-.478a4.408,4.408,0,0,1,.132-.513c.059-.185.133-.364.206-.543.043-.108.088-.216.141-.321.165-.328.336-.651.531-.963.2-.328.412-.653.626-.975.186-.281.373-.562.567-.839a2.477,2.477,0,0,0,.329-.58,1.116,1.116,0,0,0,.094-.33.885.885,0,0,0-.192-.559.4.4,0,0,0-.3-.151.976.976,0,0,0-.366.05.546.546,0,0,0-.263.135.281.281,0,0,1-.079.061.588.588,0,0,0-.177.138,5.026,5.026,0,0,0-.366.457c-.29.394-.579.787-.854,1.192-.2.289-.388.579-.572.876-.086.14-.175.279-.253.425-.11.205-.23.406-.326.618-.068.15-.138.3-.2.45-.047.112-.09.225-.129.34q-.083.244-.143.494a5.768,5.768,0,0,0-.109.586c-.024.181-.047.363-.055.545-.023.507-.025,1.015,0,1.523,0,.081.011.163.022.243" transform="translate(-14.61 -11.168)" fill="#7b9316"/>
          <path id="Trazado_94763" data-name="Trazado 94763" d="M24.951,43.065l-.044,0-1.693.413c.024.107.029.21.041.312q.035.278.053.558a6.437,6.437,0,0,1,.005.655c-.007.184-.014.368-.024.552s-.029.385-.048.577a4.356,4.356,0,0,1-.071.448c-.035.172-.083.343-.135.511a1.075,1.075,0,0,1-.091.26c-.226.361-.45.723-.681,1.08-.148.228-.3.451-.466.666-.1.129-.187.266-.281.4a8.259,8.259,0,0,0-.594.872.89.89,0,0,0-.109.562.8.8,0,0,0,.15.369.682.682,0,0,0,.428.278.883.883,0,0,0,.633-.122,1.436,1.436,0,0,0,.335-.3c.185-.214.358-.438.531-.663.254-.33.493-.67.727-1.013.118-.173.226-.351.346-.522a3.9,3.9,0,0,0,.346-.605c.085-.183.145-.375.228-.559a4.032,4.032,0,0,0,.23-.791,7.07,7.07,0,0,0,.137-.8q.017-.168.037-.336c.021-.173.033-.346.042-.519a9.789,9.789,0,0,0-.011-1.412c-.008-.089-.02-.177-.025-.267s-.022-.177-.033-.265-.014-.151-.029-.224c-.02-.1-.02-.1.067-.124" transform="translate(-11.907 -24.647)" fill="#7b9316"/>
        </g>
      </g>
    </g>
  </g>
</svg>
